G75*
%MOIN*%
%OFA0B0*%
%FSLAX25Y25*%
%IPPOS*%
%LPD*%
%AMOC8*
5,1,8,0,0,1.08239X$1,22.5*
%
%ADD10C,0.06000*%
%ADD11C,0.01600*%
%ADD12C,0.03569*%
D10*
X0043257Y0010186D03*
X0053257Y0010186D03*
X0063257Y0010186D03*
X0044517Y0138611D03*
X0034517Y0138611D03*
X0024517Y0138611D03*
X0014517Y0138611D03*
D11*
X0009286Y0148213D02*
X0009286Y0004600D01*
X0093843Y0004600D01*
X0093843Y0148213D01*
X0009286Y0148213D01*
X0009286Y0147265D02*
X0093843Y0147265D01*
X0093843Y0145666D02*
X0009286Y0145666D01*
X0009286Y0144068D02*
X0093843Y0144068D01*
X0093843Y0142469D02*
X0053538Y0142469D01*
X0053959Y0142295D02*
X0052788Y0142780D01*
X0051521Y0142780D01*
X0050351Y0142295D01*
X0049455Y0141399D01*
X0048971Y0140229D01*
X0048971Y0138962D01*
X0049455Y0137792D01*
X0050351Y0136896D01*
X0051521Y0136411D01*
X0052788Y0136411D01*
X0053959Y0136896D01*
X0054854Y0137792D01*
X0055339Y0138962D01*
X0055339Y0140229D01*
X0054854Y0141399D01*
X0053959Y0142295D01*
X0055073Y0140870D02*
X0093843Y0140870D01*
X0093843Y0139272D02*
X0055339Y0139272D01*
X0054736Y0137673D02*
X0093843Y0137673D01*
X0093843Y0136075D02*
X0048204Y0136075D01*
X0048247Y0136119D02*
X0048917Y0137736D01*
X0048917Y0139486D01*
X0048247Y0141103D01*
X0047009Y0142341D01*
X0045392Y0143011D01*
X0043642Y0143011D01*
X0042025Y0142341D01*
X0040787Y0141103D01*
X0040117Y0139486D01*
X0040117Y0137736D01*
X0040787Y0136119D01*
X0042025Y0134881D01*
X0043642Y0134211D01*
X0045392Y0134211D01*
X0047009Y0134881D01*
X0048247Y0136119D01*
X0048891Y0137673D02*
X0049573Y0137673D01*
X0048971Y0139272D02*
X0048917Y0139272D01*
X0049236Y0140870D02*
X0048344Y0140870D01*
X0046701Y0142469D02*
X0050772Y0142469D01*
X0046033Y0134476D02*
X0093843Y0134476D01*
X0093843Y0132878D02*
X0057031Y0132878D01*
X0057108Y0132846D02*
X0055938Y0133331D01*
X0054671Y0133331D01*
X0053501Y0132846D01*
X0052605Y0131950D01*
X0052120Y0130780D01*
X0052120Y0129513D01*
X0052605Y0128343D01*
X0053501Y0127447D01*
X0054671Y0126962D01*
X0055938Y0126962D01*
X0057108Y0127447D01*
X0058004Y0128343D01*
X0058489Y0129513D01*
X0058489Y0130780D01*
X0058004Y0131950D01*
X0057108Y0132846D01*
X0058282Y0131279D02*
X0093843Y0131279D01*
X0093843Y0129681D02*
X0058489Y0129681D01*
X0057744Y0128082D02*
X0093843Y0128082D01*
X0093843Y0126484D02*
X0009286Y0126484D01*
X0009286Y0128082D02*
X0052865Y0128082D01*
X0052120Y0129681D02*
X0009286Y0129681D01*
X0009286Y0131279D02*
X0052327Y0131279D01*
X0053578Y0132878D02*
X0009286Y0132878D01*
X0009286Y0134476D02*
X0012059Y0134476D01*
X0012001Y0134506D02*
X0012674Y0134163D01*
X0013393Y0133929D01*
X0014139Y0133811D01*
X0014317Y0133811D01*
X0014317Y0138411D01*
X0009717Y0138411D01*
X0009717Y0138233D01*
X0009835Y0137487D01*
X0010069Y0136768D01*
X0010412Y0136095D01*
X0010856Y0135484D01*
X0011390Y0134950D01*
X0012001Y0134506D01*
X0010426Y0136075D02*
X0009286Y0136075D01*
X0009286Y0137673D02*
X0009806Y0137673D01*
X0009717Y0138811D02*
X0014317Y0138811D01*
X0014317Y0138411D01*
X0014717Y0138411D01*
X0014717Y0133811D01*
X0014895Y0133811D01*
X0015641Y0133929D01*
X0016360Y0134163D01*
X0017033Y0134506D01*
X0017644Y0134950D01*
X0018178Y0135484D01*
X0018622Y0136095D01*
X0018965Y0136768D01*
X0019199Y0137487D01*
X0019317Y0138233D01*
X0019317Y0138411D01*
X0014717Y0138411D01*
X0014717Y0138811D01*
X0014317Y0138811D01*
X0014317Y0143411D01*
X0014139Y0143411D01*
X0013393Y0143293D01*
X0012674Y0143059D01*
X0012001Y0142716D01*
X0011390Y0142272D01*
X0010856Y0141738D01*
X0010412Y0141127D01*
X0010069Y0140454D01*
X0009835Y0139735D01*
X0009717Y0138989D01*
X0009717Y0138811D01*
X0009762Y0139272D02*
X0009286Y0139272D01*
X0009286Y0140870D02*
X0010281Y0140870D01*
X0009286Y0142469D02*
X0011661Y0142469D01*
X0014317Y0142469D02*
X0014717Y0142469D01*
X0014717Y0143411D02*
X0014717Y0138811D01*
X0019317Y0138811D01*
X0019317Y0138989D01*
X0019199Y0139735D01*
X0018965Y0140454D01*
X0018622Y0141127D01*
X0018178Y0141738D01*
X0017644Y0142272D01*
X0017033Y0142716D01*
X0016360Y0143059D01*
X0015641Y0143293D01*
X0014895Y0143411D01*
X0014717Y0143411D01*
X0014717Y0140870D02*
X0014317Y0140870D01*
X0014317Y0139272D02*
X0014717Y0139272D01*
X0014717Y0137673D02*
X0014317Y0137673D01*
X0014317Y0136075D02*
X0014717Y0136075D01*
X0014717Y0134476D02*
X0014317Y0134476D01*
X0016975Y0134476D02*
X0023001Y0134476D01*
X0023642Y0134211D02*
X0025392Y0134211D01*
X0027009Y0134881D01*
X0028247Y0136119D01*
X0028917Y0137736D01*
X0028917Y0139486D01*
X0028247Y0141103D01*
X0027009Y0142341D01*
X0025392Y0143011D01*
X0023642Y0143011D01*
X0022025Y0142341D01*
X0020787Y0141103D01*
X0020117Y0139486D01*
X0020117Y0137736D01*
X0020787Y0136119D01*
X0022025Y0134881D01*
X0023642Y0134211D01*
X0020831Y0136075D02*
X0018608Y0136075D01*
X0019228Y0137673D02*
X0020143Y0137673D01*
X0020117Y0139272D02*
X0019272Y0139272D01*
X0018753Y0140870D02*
X0020690Y0140870D01*
X0022333Y0142469D02*
X0017373Y0142469D01*
X0026033Y0134476D02*
X0033001Y0134476D01*
X0033642Y0134211D02*
X0035392Y0134211D01*
X0037009Y0134881D01*
X0038247Y0136119D01*
X0038917Y0137736D01*
X0038917Y0139486D01*
X0038247Y0141103D01*
X0037009Y0142341D01*
X0035392Y0143011D01*
X0033642Y0143011D01*
X0032025Y0142341D01*
X0030787Y0141103D01*
X0030117Y0139486D01*
X0030117Y0137736D01*
X0030787Y0136119D01*
X0032025Y0134881D01*
X0033642Y0134211D01*
X0036033Y0134476D02*
X0043001Y0134476D01*
X0040831Y0136075D02*
X0038204Y0136075D01*
X0038891Y0137673D02*
X0040143Y0137673D01*
X0040117Y0139272D02*
X0038917Y0139272D01*
X0038344Y0140870D02*
X0040690Y0140870D01*
X0042333Y0142469D02*
X0036701Y0142469D01*
X0032333Y0142469D02*
X0026701Y0142469D01*
X0028344Y0140870D02*
X0030690Y0140870D01*
X0030117Y0139272D02*
X0028917Y0139272D01*
X0028891Y0137673D02*
X0030143Y0137673D01*
X0030831Y0136075D02*
X0028204Y0136075D01*
X0038540Y0121035D02*
X0037644Y0120139D01*
X0037160Y0118969D01*
X0037160Y0117702D01*
X0037644Y0116532D01*
X0038540Y0115636D01*
X0039710Y0115151D01*
X0040977Y0115151D01*
X0042148Y0115636D01*
X0043043Y0116532D01*
X0043528Y0117702D01*
X0043528Y0118969D01*
X0043043Y0120139D01*
X0042148Y0121035D01*
X0040977Y0121520D01*
X0039710Y0121520D01*
X0038540Y0121035D01*
X0037624Y0120090D02*
X0009286Y0120090D01*
X0009286Y0121688D02*
X0093843Y0121688D01*
X0093843Y0120090D02*
X0043064Y0120090D01*
X0043528Y0118491D02*
X0093843Y0118491D01*
X0093843Y0116893D02*
X0043193Y0116893D01*
X0041323Y0115294D02*
X0093843Y0115294D01*
X0093843Y0113696D02*
X0009286Y0113696D01*
X0009286Y0115294D02*
X0039365Y0115294D01*
X0037495Y0116893D02*
X0009286Y0116893D01*
X0009286Y0118491D02*
X0037160Y0118491D01*
X0028772Y0083724D02*
X0027506Y0083724D01*
X0026335Y0083240D01*
X0025440Y0082344D01*
X0024955Y0081174D01*
X0024955Y0079907D01*
X0025440Y0078736D01*
X0026335Y0077841D01*
X0027506Y0077356D01*
X0028772Y0077356D01*
X0029943Y0077841D01*
X0030839Y0078736D01*
X0031323Y0079907D01*
X0031323Y0081174D01*
X0030839Y0082344D01*
X0029943Y0083240D01*
X0028772Y0083724D01*
X0029739Y0083324D02*
X0093843Y0083324D01*
X0093843Y0081726D02*
X0031095Y0081726D01*
X0031323Y0080127D02*
X0093843Y0080127D01*
X0093843Y0078529D02*
X0030631Y0078529D01*
X0026539Y0083324D02*
X0009286Y0083324D01*
X0009286Y0081726D02*
X0025184Y0081726D01*
X0024955Y0080127D02*
X0009286Y0080127D01*
X0009286Y0078529D02*
X0025647Y0078529D01*
X0009286Y0076930D02*
X0093843Y0076930D01*
X0093843Y0075332D02*
X0009286Y0075332D01*
X0009286Y0073733D02*
X0093843Y0073733D01*
X0093843Y0072134D02*
X0009286Y0072134D01*
X0009286Y0070536D02*
X0093843Y0070536D01*
X0093843Y0068937D02*
X0009286Y0068937D01*
X0009286Y0067339D02*
X0093843Y0067339D01*
X0093843Y0065740D02*
X0009286Y0065740D01*
X0009286Y0064142D02*
X0093843Y0064142D01*
X0093843Y0062543D02*
X0009286Y0062543D01*
X0009286Y0060945D02*
X0093843Y0060945D01*
X0093843Y0059346D02*
X0051868Y0059346D01*
X0051596Y0059618D02*
X0050426Y0060102D01*
X0049159Y0060102D01*
X0047989Y0059618D01*
X0047093Y0058722D01*
X0046608Y0057552D01*
X0046608Y0056285D01*
X0047093Y0055114D01*
X0047989Y0054219D01*
X0049159Y0053734D01*
X0050426Y0053734D01*
X0051596Y0054219D01*
X0052492Y0055114D01*
X0052977Y0056285D01*
X0052977Y0057552D01*
X0052492Y0058722D01*
X0051596Y0059618D01*
X0052896Y0057748D02*
X0093843Y0057748D01*
X0093843Y0056149D02*
X0052921Y0056149D01*
X0051929Y0054551D02*
X0093843Y0054551D01*
X0093843Y0052952D02*
X0009286Y0052952D01*
X0009286Y0051354D02*
X0093843Y0051354D01*
X0093843Y0049755D02*
X0009286Y0049755D01*
X0009286Y0048157D02*
X0093843Y0048157D01*
X0093843Y0046558D02*
X0009286Y0046558D01*
X0009286Y0044960D02*
X0093843Y0044960D01*
X0093843Y0043361D02*
X0009286Y0043361D01*
X0009286Y0041763D02*
X0056118Y0041763D01*
X0055755Y0041399D02*
X0055270Y0040229D01*
X0055270Y0038962D01*
X0055755Y0037792D01*
X0056650Y0036896D01*
X0057821Y0036411D01*
X0059087Y0036411D01*
X0060258Y0036896D01*
X0061154Y0037792D01*
X0061638Y0038962D01*
X0061638Y0040229D01*
X0061154Y0041399D01*
X0060258Y0042295D01*
X0059087Y0042780D01*
X0057821Y0042780D01*
X0056650Y0042295D01*
X0055755Y0041399D01*
X0055270Y0040164D02*
X0009286Y0040164D01*
X0009286Y0038566D02*
X0055434Y0038566D01*
X0056579Y0036967D02*
X0009286Y0036967D01*
X0009286Y0035369D02*
X0093843Y0035369D01*
X0093843Y0036967D02*
X0060329Y0036967D01*
X0061474Y0038566D02*
X0093843Y0038566D01*
X0093843Y0040164D02*
X0061638Y0040164D01*
X0060790Y0041763D02*
X0093843Y0041763D01*
X0093843Y0033770D02*
X0009286Y0033770D01*
X0009286Y0032172D02*
X0093843Y0032172D01*
X0093843Y0030573D02*
X0009286Y0030573D01*
X0009286Y0028975D02*
X0093843Y0028975D01*
X0093843Y0027376D02*
X0009286Y0027376D01*
X0009286Y0025778D02*
X0093843Y0025778D01*
X0093843Y0024179D02*
X0009286Y0024179D01*
X0009286Y0022581D02*
X0093843Y0022581D01*
X0093843Y0020982D02*
X0009286Y0020982D01*
X0009286Y0019384D02*
X0093843Y0019384D01*
X0093843Y0017785D02*
X0009286Y0017785D01*
X0009286Y0016187D02*
X0093843Y0016187D01*
X0093843Y0014588D02*
X0055190Y0014588D01*
X0055100Y0014634D02*
X0054381Y0014868D01*
X0053635Y0014986D01*
X0053457Y0014986D01*
X0053457Y0010386D01*
X0053057Y0010386D01*
X0053057Y0009986D01*
X0048457Y0009986D01*
X0048457Y0009808D01*
X0048575Y0009062D01*
X0048809Y0008343D01*
X0049152Y0007670D01*
X0049596Y0007059D01*
X0050130Y0006525D01*
X0050741Y0006080D01*
X0051415Y0005737D01*
X0052133Y0005504D01*
X0052879Y0005386D01*
X0053057Y0005386D01*
X0053057Y0009986D01*
X0053457Y0009986D01*
X0053457Y0005386D01*
X0053635Y0005386D01*
X0054381Y0005504D01*
X0055100Y0005737D01*
X0055773Y0006080D01*
X0056384Y0006525D01*
X0056918Y0007059D01*
X0057363Y0007670D01*
X0057706Y0008343D01*
X0057939Y0009062D01*
X0058057Y0009808D01*
X0058057Y0009986D01*
X0053457Y0009986D01*
X0053457Y0010386D01*
X0058057Y0010386D01*
X0058057Y0010564D01*
X0057939Y0011310D01*
X0057706Y0012028D01*
X0057363Y0012702D01*
X0056918Y0013313D01*
X0056384Y0013847D01*
X0055773Y0014291D01*
X0055100Y0014634D01*
X0053457Y0014588D02*
X0053057Y0014588D01*
X0053057Y0014986D02*
X0052879Y0014986D01*
X0052133Y0014868D01*
X0051415Y0014634D01*
X0050741Y0014291D01*
X0050130Y0013847D01*
X0049596Y0013313D01*
X0049152Y0012702D01*
X0048809Y0012028D01*
X0048575Y0011310D01*
X0048457Y0010564D01*
X0048457Y0010386D01*
X0053057Y0010386D01*
X0053057Y0014986D01*
X0053057Y0012990D02*
X0053457Y0012990D01*
X0053457Y0011391D02*
X0053057Y0011391D01*
X0053057Y0009793D02*
X0053457Y0009793D01*
X0053457Y0008194D02*
X0053057Y0008194D01*
X0053057Y0006596D02*
X0053457Y0006596D01*
X0056455Y0006596D02*
X0060625Y0006596D01*
X0060765Y0006456D02*
X0062382Y0005786D01*
X0064132Y0005786D01*
X0065750Y0006456D01*
X0066987Y0007693D01*
X0067657Y0009311D01*
X0067657Y0011061D01*
X0066987Y0012678D01*
X0065750Y0013916D01*
X0064132Y0014586D01*
X0062382Y0014586D01*
X0060765Y0013916D01*
X0059527Y0012678D01*
X0058857Y0011061D01*
X0058857Y0009311D01*
X0059527Y0007693D01*
X0060765Y0006456D01*
X0059320Y0008194D02*
X0057630Y0008194D01*
X0058055Y0009793D02*
X0058857Y0009793D01*
X0058994Y0011391D02*
X0057913Y0011391D01*
X0057153Y0012990D02*
X0059838Y0012990D01*
X0065889Y0006596D02*
X0093843Y0006596D01*
X0093843Y0008194D02*
X0067195Y0008194D01*
X0067657Y0009793D02*
X0093843Y0009793D01*
X0093843Y0011391D02*
X0067520Y0011391D01*
X0066676Y0012990D02*
X0093843Y0012990D01*
X0093843Y0004997D02*
X0009286Y0004997D01*
X0009286Y0006596D02*
X0040625Y0006596D01*
X0040765Y0006456D02*
X0042382Y0005786D01*
X0044132Y0005786D01*
X0045750Y0006456D01*
X0046987Y0007693D01*
X0047657Y0009311D01*
X0047657Y0011061D01*
X0046987Y0012678D01*
X0045750Y0013916D01*
X0044132Y0014586D01*
X0042382Y0014586D01*
X0040765Y0013916D01*
X0039527Y0012678D01*
X0038857Y0011061D01*
X0038857Y0009311D01*
X0039527Y0007693D01*
X0040765Y0006456D01*
X0039320Y0008194D02*
X0009286Y0008194D01*
X0009286Y0009793D02*
X0038857Y0009793D01*
X0038994Y0011391D02*
X0009286Y0011391D01*
X0009286Y0012990D02*
X0039838Y0012990D01*
X0045889Y0006596D02*
X0050059Y0006596D01*
X0048885Y0008194D02*
X0047195Y0008194D01*
X0047657Y0009793D02*
X0048460Y0009793D01*
X0048602Y0011391D02*
X0047520Y0011391D01*
X0046676Y0012990D02*
X0049361Y0012990D01*
X0051324Y0014588D02*
X0009286Y0014588D01*
X0009286Y0054551D02*
X0047657Y0054551D01*
X0046664Y0056149D02*
X0009286Y0056149D01*
X0009286Y0057748D02*
X0046690Y0057748D01*
X0047718Y0059346D02*
X0009286Y0059346D01*
X0009286Y0084923D02*
X0093843Y0084923D01*
X0093843Y0086521D02*
X0009286Y0086521D01*
X0009286Y0088120D02*
X0093843Y0088120D01*
X0093843Y0089718D02*
X0009286Y0089718D01*
X0009286Y0091317D02*
X0093843Y0091317D01*
X0093843Y0092915D02*
X0009286Y0092915D01*
X0009286Y0094514D02*
X0093843Y0094514D01*
X0093843Y0096112D02*
X0009286Y0096112D01*
X0009286Y0097711D02*
X0093843Y0097711D01*
X0093843Y0099309D02*
X0009286Y0099309D01*
X0009286Y0100908D02*
X0093843Y0100908D01*
X0093843Y0102506D02*
X0009286Y0102506D01*
X0009286Y0104105D02*
X0093843Y0104105D01*
X0093843Y0105703D02*
X0009286Y0105703D01*
X0009286Y0107302D02*
X0093843Y0107302D01*
X0093843Y0108900D02*
X0009286Y0108900D01*
X0009286Y0110499D02*
X0093843Y0110499D01*
X0093843Y0112097D02*
X0009286Y0112097D01*
X0009286Y0123287D02*
X0093843Y0123287D01*
X0093843Y0124885D02*
X0009286Y0124885D01*
D12*
X0011604Y0125028D03*
X0017115Y0109674D03*
X0033257Y0109674D03*
X0040344Y0118335D03*
X0050974Y0110855D03*
X0051367Y0092745D03*
X0033651Y0092745D03*
X0028139Y0080540D03*
X0019084Y0054950D03*
X0025383Y0051800D03*
X0049793Y0056918D03*
X0058454Y0039595D03*
X0067903Y0039989D03*
X0067115Y0056524D03*
X0080895Y0082509D03*
X0078139Y0086839D03*
X0073021Y0082902D03*
X0072234Y0112430D03*
X0076564Y0117154D03*
X0082076Y0120698D03*
X0055304Y0130146D03*
X0052155Y0139595D03*
X0091919Y0043139D03*
M02*
