G75*
%MOIN*%
%OFA0B0*%
%FSLAX25Y25*%
%IPPOS*%
%LPD*%
%AMOC8*
5,1,8,0,0,1.08239X$1,22.5*
%
%ADD10C,0.06000*%
%ADD11C,0.03569*%
%ADD12C,0.01600*%
D10*
X0043257Y0010186D03*
X0053257Y0010186D03*
X0063257Y0010186D03*
X0044517Y0138611D03*
X0034517Y0138611D03*
X0024517Y0138611D03*
X0014517Y0138611D03*
D11*
X0011604Y0125028D03*
X0017115Y0109674D03*
X0033257Y0109674D03*
X0040344Y0118335D03*
X0050974Y0110855D03*
X0051367Y0092745D03*
X0033651Y0092745D03*
X0028139Y0080540D03*
X0019084Y0054950D03*
X0025383Y0051800D03*
X0049793Y0056918D03*
X0058454Y0039595D03*
X0067903Y0039989D03*
X0067115Y0056524D03*
X0080895Y0082509D03*
X0078139Y0086839D03*
X0073021Y0082902D03*
X0072234Y0112430D03*
X0076564Y0117154D03*
X0082076Y0120698D03*
X0055304Y0130146D03*
X0052155Y0139595D03*
X0091919Y0043139D03*
D12*
X0009286Y0004600D02*
X0009286Y0122843D01*
X0009800Y0122329D01*
X0010970Y0121844D01*
X0012237Y0121844D01*
X0013407Y0122329D01*
X0014303Y0123225D01*
X0014788Y0124395D01*
X0014788Y0125662D01*
X0014303Y0126832D01*
X0013407Y0127728D01*
X0012237Y0128213D01*
X0010970Y0128213D01*
X0009800Y0127728D01*
X0009286Y0127213D01*
X0009286Y0148213D01*
X0093843Y0148213D01*
X0093843Y0045717D01*
X0093722Y0045838D01*
X0092552Y0046323D01*
X0091285Y0046323D01*
X0090115Y0045838D01*
X0089219Y0044942D01*
X0088734Y0043772D01*
X0088734Y0042505D01*
X0089219Y0041335D01*
X0090115Y0040439D01*
X0091285Y0039954D01*
X0092552Y0039954D01*
X0093722Y0040439D01*
X0093843Y0040560D01*
X0093843Y0004600D01*
X0009286Y0004600D01*
X0009286Y0004997D02*
X0093843Y0004997D01*
X0093843Y0006596D02*
X0065889Y0006596D01*
X0065750Y0006456D02*
X0066987Y0007693D01*
X0067657Y0009311D01*
X0067657Y0011061D01*
X0066987Y0012678D01*
X0065750Y0013916D01*
X0064132Y0014586D01*
X0062382Y0014586D01*
X0060765Y0013916D01*
X0059527Y0012678D01*
X0058857Y0011061D01*
X0058857Y0009311D01*
X0059527Y0007693D01*
X0060765Y0006456D01*
X0062382Y0005786D01*
X0064132Y0005786D01*
X0065750Y0006456D01*
X0067195Y0008194D02*
X0093843Y0008194D01*
X0093843Y0009793D02*
X0067657Y0009793D01*
X0067520Y0011391D02*
X0093843Y0011391D01*
X0093843Y0012990D02*
X0066676Y0012990D01*
X0060625Y0006596D02*
X0055889Y0006596D01*
X0055750Y0006456D02*
X0056987Y0007693D01*
X0057657Y0009311D01*
X0057657Y0011061D01*
X0056987Y0012678D01*
X0055750Y0013916D01*
X0054132Y0014586D01*
X0052382Y0014586D01*
X0050765Y0013916D01*
X0049527Y0012678D01*
X0048857Y0011061D01*
X0048857Y0009311D01*
X0049527Y0007693D01*
X0050765Y0006456D01*
X0052382Y0005786D01*
X0054132Y0005786D01*
X0055750Y0006456D01*
X0057195Y0008194D02*
X0059320Y0008194D01*
X0058857Y0009793D02*
X0057657Y0009793D01*
X0057520Y0011391D02*
X0058994Y0011391D01*
X0059838Y0012990D02*
X0056676Y0012990D01*
X0050625Y0006596D02*
X0045889Y0006596D01*
X0045750Y0006456D02*
X0046987Y0007693D01*
X0047657Y0009311D01*
X0047657Y0011061D01*
X0046987Y0012678D01*
X0045750Y0013916D01*
X0044132Y0014586D01*
X0042382Y0014586D01*
X0040765Y0013916D01*
X0039527Y0012678D01*
X0038857Y0011061D01*
X0038857Y0009311D01*
X0039527Y0007693D01*
X0040765Y0006456D01*
X0042382Y0005786D01*
X0044132Y0005786D01*
X0045750Y0006456D01*
X0047195Y0008194D02*
X0049320Y0008194D01*
X0048857Y0009793D02*
X0047657Y0009793D01*
X0047520Y0011391D02*
X0048994Y0011391D01*
X0049838Y0012990D02*
X0046676Y0012990D01*
X0040625Y0006596D02*
X0009286Y0006596D01*
X0009286Y0008194D02*
X0039320Y0008194D01*
X0038857Y0009793D02*
X0009286Y0009793D01*
X0009286Y0011391D02*
X0038994Y0011391D01*
X0039838Y0012990D02*
X0009286Y0012990D01*
X0009286Y0014588D02*
X0093843Y0014588D01*
X0093843Y0016187D02*
X0009286Y0016187D01*
X0009286Y0017785D02*
X0093843Y0017785D01*
X0093843Y0019384D02*
X0009286Y0019384D01*
X0009286Y0020982D02*
X0093843Y0020982D01*
X0093843Y0022581D02*
X0009286Y0022581D01*
X0009286Y0024179D02*
X0093843Y0024179D01*
X0093843Y0025778D02*
X0009286Y0025778D01*
X0009286Y0027376D02*
X0093843Y0027376D01*
X0093843Y0028975D02*
X0009286Y0028975D01*
X0009286Y0030573D02*
X0093843Y0030573D01*
X0093843Y0032172D02*
X0009286Y0032172D01*
X0009286Y0033770D02*
X0093843Y0033770D01*
X0093843Y0035369D02*
X0009286Y0035369D01*
X0009286Y0036967D02*
X0066877Y0036967D01*
X0067269Y0036805D02*
X0066099Y0037289D01*
X0065203Y0038185D01*
X0064719Y0039356D01*
X0064719Y0040622D01*
X0065203Y0041793D01*
X0066099Y0042688D01*
X0067269Y0043173D01*
X0068536Y0043173D01*
X0069707Y0042688D01*
X0070602Y0041793D01*
X0071087Y0040622D01*
X0071087Y0039356D01*
X0070602Y0038185D01*
X0069707Y0037289D01*
X0068536Y0036805D01*
X0067269Y0036805D01*
X0068929Y0036967D02*
X0093843Y0036967D01*
X0093843Y0038566D02*
X0070760Y0038566D01*
X0071087Y0040164D02*
X0090778Y0040164D01*
X0089042Y0041763D02*
X0070615Y0041763D01*
X0065191Y0041763D02*
X0009286Y0041763D01*
X0009286Y0043361D02*
X0088734Y0043361D01*
X0089237Y0044960D02*
X0009286Y0044960D01*
X0009286Y0046558D02*
X0093843Y0046558D01*
X0093843Y0048157D02*
X0009286Y0048157D01*
X0009286Y0049755D02*
X0022925Y0049755D01*
X0022684Y0049996D02*
X0023579Y0049101D01*
X0024750Y0048616D01*
X0026017Y0048616D01*
X0027187Y0049101D01*
X0028083Y0049996D01*
X0028567Y0051167D01*
X0028567Y0052433D01*
X0028083Y0053604D01*
X0027187Y0054499D01*
X0026017Y0054984D01*
X0024750Y0054984D01*
X0023579Y0054499D01*
X0022684Y0053604D01*
X0022199Y0052433D01*
X0022199Y0051167D01*
X0022684Y0049996D01*
X0022199Y0051354D02*
X0009286Y0051354D01*
X0009286Y0052952D02*
X0016578Y0052952D01*
X0016384Y0053146D02*
X0017280Y0052250D01*
X0018451Y0051765D01*
X0019717Y0051765D01*
X0020888Y0052250D01*
X0021783Y0053146D01*
X0022268Y0054316D01*
X0022268Y0055583D01*
X0021783Y0056753D01*
X0020888Y0057649D01*
X0019717Y0058134D01*
X0018451Y0058134D01*
X0017280Y0057649D01*
X0016384Y0056753D01*
X0015900Y0055583D01*
X0015900Y0054316D01*
X0016384Y0053146D01*
X0015900Y0054551D02*
X0009286Y0054551D01*
X0009286Y0056149D02*
X0016134Y0056149D01*
X0017519Y0057748D02*
X0009286Y0057748D01*
X0009286Y0059346D02*
X0047718Y0059346D01*
X0047989Y0059618D02*
X0047093Y0058722D01*
X0046608Y0057552D01*
X0046608Y0056285D01*
X0047093Y0055114D01*
X0047989Y0054219D01*
X0049159Y0053734D01*
X0050426Y0053734D01*
X0051596Y0054219D01*
X0052492Y0055114D01*
X0052977Y0056285D01*
X0052977Y0057552D01*
X0052492Y0058722D01*
X0051596Y0059618D01*
X0050426Y0060102D01*
X0049159Y0060102D01*
X0047989Y0059618D01*
X0046690Y0057748D02*
X0020649Y0057748D01*
X0022034Y0056149D02*
X0046664Y0056149D01*
X0047657Y0054551D02*
X0027063Y0054551D01*
X0028352Y0052952D02*
X0093843Y0052952D01*
X0093843Y0051354D02*
X0028567Y0051354D01*
X0027842Y0049755D02*
X0093843Y0049755D01*
X0093843Y0054551D02*
X0069645Y0054551D01*
X0069815Y0054721D02*
X0070300Y0055891D01*
X0070300Y0057158D01*
X0069815Y0058328D01*
X0068919Y0059224D01*
X0067749Y0059709D01*
X0066482Y0059709D01*
X0065312Y0059224D01*
X0064416Y0058328D01*
X0063931Y0057158D01*
X0063931Y0055891D01*
X0064416Y0054721D01*
X0065312Y0053825D01*
X0066482Y0053340D01*
X0067749Y0053340D01*
X0068919Y0053825D01*
X0069815Y0054721D01*
X0070300Y0056149D02*
X0093843Y0056149D01*
X0093843Y0057748D02*
X0070055Y0057748D01*
X0068623Y0059346D02*
X0093843Y0059346D01*
X0093843Y0060945D02*
X0009286Y0060945D01*
X0009286Y0062543D02*
X0093843Y0062543D01*
X0093843Y0064142D02*
X0009286Y0064142D01*
X0009286Y0065740D02*
X0093843Y0065740D01*
X0093843Y0067339D02*
X0009286Y0067339D01*
X0009286Y0068937D02*
X0093843Y0068937D01*
X0093843Y0070536D02*
X0009286Y0070536D01*
X0009286Y0072134D02*
X0093843Y0072134D01*
X0093843Y0073733D02*
X0009286Y0073733D01*
X0009286Y0075332D02*
X0093843Y0075332D01*
X0093843Y0076930D02*
X0009286Y0076930D01*
X0009286Y0078529D02*
X0025647Y0078529D01*
X0025440Y0078736D02*
X0026335Y0077841D01*
X0027506Y0077356D01*
X0028772Y0077356D01*
X0029943Y0077841D01*
X0030839Y0078736D01*
X0031323Y0079907D01*
X0031323Y0081174D01*
X0030839Y0082344D01*
X0029943Y0083240D01*
X0028772Y0083724D01*
X0027506Y0083724D01*
X0026335Y0083240D01*
X0025440Y0082344D01*
X0024955Y0081174D01*
X0024955Y0079907D01*
X0025440Y0078736D01*
X0024955Y0080127D02*
X0009286Y0080127D01*
X0009286Y0081726D02*
X0025184Y0081726D01*
X0026539Y0083324D02*
X0009286Y0083324D01*
X0009286Y0084923D02*
X0070538Y0084923D01*
X0070322Y0084706D02*
X0069837Y0083536D01*
X0069837Y0082269D01*
X0070322Y0081099D01*
X0071217Y0080203D01*
X0072388Y0079718D01*
X0073654Y0079718D01*
X0074825Y0080203D01*
X0075720Y0081099D01*
X0076205Y0082269D01*
X0076205Y0083536D01*
X0075720Y0084706D01*
X0074825Y0085602D01*
X0073654Y0086087D01*
X0072388Y0086087D01*
X0071217Y0085602D01*
X0070322Y0084706D01*
X0069837Y0083324D02*
X0029739Y0083324D01*
X0031095Y0081726D02*
X0070062Y0081726D01*
X0071400Y0080127D02*
X0031323Y0080127D01*
X0030631Y0078529D02*
X0093843Y0078529D01*
X0093843Y0080127D02*
X0083017Y0080127D01*
X0082699Y0079809D02*
X0083594Y0080705D01*
X0084079Y0081875D01*
X0084079Y0083142D01*
X0083594Y0084312D01*
X0082699Y0085208D01*
X0081528Y0085693D01*
X0081111Y0085693D01*
X0081323Y0086206D01*
X0081323Y0087473D01*
X0080839Y0088643D01*
X0079943Y0089539D01*
X0078772Y0090024D01*
X0077506Y0090024D01*
X0076335Y0089539D01*
X0075440Y0088643D01*
X0074955Y0087473D01*
X0074955Y0086206D01*
X0075440Y0085036D01*
X0076335Y0084140D01*
X0077506Y0083655D01*
X0077923Y0083655D01*
X0077711Y0083142D01*
X0077711Y0081875D01*
X0078196Y0080705D01*
X0079091Y0079809D01*
X0080262Y0079324D01*
X0081528Y0079324D01*
X0082699Y0079809D01*
X0084017Y0081726D02*
X0093843Y0081726D01*
X0093843Y0083324D02*
X0084004Y0083324D01*
X0082984Y0084923D02*
X0093843Y0084923D01*
X0093843Y0086521D02*
X0081323Y0086521D01*
X0081055Y0088120D02*
X0093843Y0088120D01*
X0093843Y0089718D02*
X0079510Y0089718D01*
X0076768Y0089718D02*
X0052381Y0089718D01*
X0052001Y0089561D02*
X0053171Y0090045D01*
X0054067Y0090941D01*
X0054552Y0092111D01*
X0054552Y0093378D01*
X0054067Y0094549D01*
X0053171Y0095444D01*
X0052001Y0095929D01*
X0050734Y0095929D01*
X0049564Y0095444D01*
X0048668Y0094549D01*
X0048183Y0093378D01*
X0048183Y0092111D01*
X0048668Y0090941D01*
X0049564Y0090045D01*
X0050734Y0089561D01*
X0052001Y0089561D01*
X0050354Y0089718D02*
X0034665Y0089718D01*
X0034284Y0089561D02*
X0035455Y0090045D01*
X0036350Y0090941D01*
X0036835Y0092111D01*
X0036835Y0093378D01*
X0036350Y0094549D01*
X0035455Y0095444D01*
X0034284Y0095929D01*
X0033018Y0095929D01*
X0031847Y0095444D01*
X0030951Y0094549D01*
X0030467Y0093378D01*
X0030467Y0092111D01*
X0030951Y0090941D01*
X0031847Y0090045D01*
X0033018Y0089561D01*
X0034284Y0089561D01*
X0032637Y0089718D02*
X0009286Y0089718D01*
X0009286Y0088120D02*
X0075223Y0088120D01*
X0074955Y0086521D02*
X0009286Y0086521D01*
X0009286Y0091317D02*
X0030796Y0091317D01*
X0030467Y0092915D02*
X0009286Y0092915D01*
X0009286Y0094514D02*
X0030937Y0094514D01*
X0036365Y0094514D02*
X0048653Y0094514D01*
X0048183Y0092915D02*
X0036835Y0092915D01*
X0036506Y0091317D02*
X0048512Y0091317D01*
X0054222Y0091317D02*
X0093843Y0091317D01*
X0093843Y0092915D02*
X0054552Y0092915D01*
X0054081Y0094514D02*
X0093843Y0094514D01*
X0093843Y0096112D02*
X0009286Y0096112D01*
X0009286Y0097711D02*
X0093843Y0097711D01*
X0093843Y0099309D02*
X0009286Y0099309D01*
X0009286Y0100908D02*
X0093843Y0100908D01*
X0093843Y0102506D02*
X0009286Y0102506D01*
X0009286Y0104105D02*
X0093843Y0104105D01*
X0093843Y0105703D02*
X0009286Y0105703D01*
X0009286Y0107302D02*
X0014985Y0107302D01*
X0015312Y0106975D02*
X0016482Y0106490D01*
X0017749Y0106490D01*
X0018919Y0106975D01*
X0019815Y0107870D01*
X0020300Y0109041D01*
X0020300Y0110307D01*
X0019815Y0111478D01*
X0018919Y0112373D01*
X0017749Y0112858D01*
X0016482Y0112858D01*
X0015312Y0112373D01*
X0014416Y0111478D01*
X0013931Y0110307D01*
X0013931Y0109041D01*
X0014416Y0107870D01*
X0015312Y0106975D01*
X0013989Y0108900D02*
X0009286Y0108900D01*
X0009286Y0110499D02*
X0014010Y0110499D01*
X0015036Y0112097D02*
X0009286Y0112097D01*
X0009286Y0113696D02*
X0049511Y0113696D01*
X0049170Y0113555D02*
X0050340Y0114039D01*
X0051607Y0114039D01*
X0052777Y0113555D01*
X0053673Y0112659D01*
X0054158Y0111489D01*
X0054158Y0110222D01*
X0053673Y0109051D01*
X0052777Y0108156D01*
X0051607Y0107671D01*
X0050340Y0107671D01*
X0049170Y0108156D01*
X0048274Y0109051D01*
X0047789Y0110222D01*
X0047789Y0111489D01*
X0048274Y0112659D01*
X0049170Y0113555D01*
X0048042Y0112097D02*
X0035337Y0112097D01*
X0035061Y0112373D02*
X0033891Y0112858D01*
X0032624Y0112858D01*
X0031453Y0112373D01*
X0030558Y0111478D01*
X0030073Y0110307D01*
X0030073Y0109041D01*
X0030558Y0107870D01*
X0031453Y0106975D01*
X0032624Y0106490D01*
X0033891Y0106490D01*
X0035061Y0106975D01*
X0035957Y0107870D01*
X0036441Y0109041D01*
X0036441Y0110307D01*
X0035957Y0111478D01*
X0035061Y0112373D01*
X0036362Y0110499D02*
X0047789Y0110499D01*
X0048425Y0108900D02*
X0036383Y0108900D01*
X0035388Y0107302D02*
X0093843Y0107302D01*
X0093843Y0108900D02*
X0053522Y0108900D01*
X0054158Y0110499D02*
X0069662Y0110499D01*
X0069534Y0110626D02*
X0070430Y0109730D01*
X0071600Y0109246D01*
X0072867Y0109246D01*
X0074037Y0109730D01*
X0074933Y0110626D01*
X0075418Y0111797D01*
X0075418Y0113063D01*
X0074933Y0114234D01*
X0074037Y0115129D01*
X0072867Y0115614D01*
X0071600Y0115614D01*
X0070430Y0115129D01*
X0069534Y0114234D01*
X0069049Y0113063D01*
X0069049Y0111797D01*
X0069534Y0110626D01*
X0069049Y0112097D02*
X0053906Y0112097D01*
X0052437Y0113696D02*
X0069311Y0113696D01*
X0070828Y0115294D02*
X0041323Y0115294D01*
X0040977Y0115151D02*
X0042148Y0115636D01*
X0043043Y0116532D01*
X0043528Y0117702D01*
X0043528Y0118969D01*
X0043043Y0120139D01*
X0042148Y0121035D01*
X0040977Y0121520D01*
X0039710Y0121520D01*
X0038540Y0121035D01*
X0037644Y0120139D01*
X0037160Y0118969D01*
X0037160Y0117702D01*
X0037644Y0116532D01*
X0038540Y0115636D01*
X0039710Y0115151D01*
X0040977Y0115151D01*
X0039365Y0115294D02*
X0009286Y0115294D01*
X0009286Y0116893D02*
X0037495Y0116893D01*
X0037160Y0118491D02*
X0009286Y0118491D01*
X0009286Y0120090D02*
X0037624Y0120090D01*
X0043064Y0120090D02*
X0075330Y0120090D01*
X0074761Y0119854D02*
X0075931Y0120339D01*
X0077198Y0120339D01*
X0078368Y0119854D01*
X0079264Y0118958D01*
X0079749Y0117788D01*
X0079749Y0116521D01*
X0079264Y0115351D01*
X0078368Y0114455D01*
X0077198Y0113970D01*
X0075931Y0113970D01*
X0074761Y0114455D01*
X0073865Y0115351D01*
X0073380Y0116521D01*
X0073380Y0117788D01*
X0073865Y0118958D01*
X0074761Y0119854D01*
X0073671Y0118491D02*
X0043528Y0118491D01*
X0043193Y0116893D02*
X0073380Y0116893D01*
X0073639Y0115294D02*
X0073921Y0115294D01*
X0075156Y0113696D02*
X0093843Y0113696D01*
X0093843Y0115294D02*
X0079207Y0115294D01*
X0079749Y0116893D02*
X0093843Y0116893D01*
X0093843Y0118491D02*
X0084373Y0118491D01*
X0084776Y0118894D02*
X0085260Y0120064D01*
X0085260Y0121331D01*
X0084776Y0122501D01*
X0083880Y0123397D01*
X0082709Y0123882D01*
X0081443Y0123882D01*
X0080272Y0123397D01*
X0079377Y0122501D01*
X0078892Y0121331D01*
X0078892Y0120064D01*
X0079377Y0118894D01*
X0080272Y0117998D01*
X0081443Y0117513D01*
X0082709Y0117513D01*
X0083880Y0117998D01*
X0084776Y0118894D01*
X0085260Y0120090D02*
X0093843Y0120090D01*
X0093843Y0121688D02*
X0085112Y0121688D01*
X0083990Y0123287D02*
X0093843Y0123287D01*
X0093843Y0124885D02*
X0014788Y0124885D01*
X0014447Y0126484D02*
X0093843Y0126484D01*
X0093843Y0128082D02*
X0057744Y0128082D01*
X0058004Y0128343D02*
X0058489Y0129513D01*
X0058489Y0130780D01*
X0058004Y0131950D01*
X0057108Y0132846D01*
X0055938Y0133331D01*
X0054671Y0133331D01*
X0053501Y0132846D01*
X0052605Y0131950D01*
X0052120Y0130780D01*
X0052120Y0129513D01*
X0052605Y0128343D01*
X0053501Y0127447D01*
X0054671Y0126962D01*
X0055938Y0126962D01*
X0057108Y0127447D01*
X0058004Y0128343D01*
X0058489Y0129681D02*
X0093843Y0129681D01*
X0093843Y0131279D02*
X0058282Y0131279D01*
X0057031Y0132878D02*
X0093843Y0132878D01*
X0093843Y0134476D02*
X0046975Y0134476D01*
X0047033Y0134506D02*
X0047644Y0134950D01*
X0048178Y0135484D01*
X0048622Y0136095D01*
X0048965Y0136768D01*
X0049199Y0137487D01*
X0049317Y0138233D01*
X0049317Y0138411D01*
X0044717Y0138411D01*
X0044717Y0133811D01*
X0044895Y0133811D01*
X0045641Y0133929D01*
X0046360Y0134163D01*
X0047033Y0134506D01*
X0048608Y0136075D02*
X0093843Y0136075D01*
X0093843Y0137673D02*
X0049228Y0137673D01*
X0049317Y0138811D02*
X0049317Y0138989D01*
X0049199Y0139735D01*
X0048965Y0140454D01*
X0048622Y0141127D01*
X0048178Y0141738D01*
X0047644Y0142272D01*
X0047033Y0142716D01*
X0046360Y0143059D01*
X0045641Y0143293D01*
X0044895Y0143411D01*
X0044717Y0143411D01*
X0044717Y0138811D01*
X0044317Y0138811D01*
X0044317Y0138411D01*
X0039717Y0138411D01*
X0039717Y0138233D01*
X0039835Y0137487D01*
X0040069Y0136768D01*
X0040412Y0136095D01*
X0040856Y0135484D01*
X0041390Y0134950D01*
X0042001Y0134506D01*
X0042674Y0134163D01*
X0043393Y0133929D01*
X0044139Y0133811D01*
X0044317Y0133811D01*
X0044317Y0138411D01*
X0044717Y0138411D01*
X0044717Y0138811D01*
X0049317Y0138811D01*
X0049272Y0139272D02*
X0093843Y0139272D01*
X0093843Y0140870D02*
X0048753Y0140870D01*
X0047373Y0142469D02*
X0093843Y0142469D01*
X0093843Y0144068D02*
X0009286Y0144068D01*
X0009286Y0145666D02*
X0093843Y0145666D01*
X0093843Y0147265D02*
X0009286Y0147265D01*
X0009286Y0142469D02*
X0012333Y0142469D01*
X0012025Y0142341D02*
X0010787Y0141103D01*
X0010117Y0139486D01*
X0010117Y0137736D01*
X0010787Y0136119D01*
X0012025Y0134881D01*
X0013642Y0134211D01*
X0015392Y0134211D01*
X0017009Y0134881D01*
X0018247Y0136119D01*
X0018917Y0137736D01*
X0018917Y0139486D01*
X0018247Y0141103D01*
X0017009Y0142341D01*
X0015392Y0143011D01*
X0013642Y0143011D01*
X0012025Y0142341D01*
X0010690Y0140870D02*
X0009286Y0140870D01*
X0009286Y0139272D02*
X0010117Y0139272D01*
X0010143Y0137673D02*
X0009286Y0137673D01*
X0009286Y0136075D02*
X0010831Y0136075D01*
X0009286Y0134476D02*
X0013001Y0134476D01*
X0016033Y0134476D02*
X0023001Y0134476D01*
X0023642Y0134211D02*
X0025392Y0134211D01*
X0027009Y0134881D01*
X0028247Y0136119D01*
X0028917Y0137736D01*
X0028917Y0139486D01*
X0028247Y0141103D01*
X0027009Y0142341D01*
X0025392Y0143011D01*
X0023642Y0143011D01*
X0022025Y0142341D01*
X0020787Y0141103D01*
X0020117Y0139486D01*
X0020117Y0137736D01*
X0020787Y0136119D01*
X0022025Y0134881D01*
X0023642Y0134211D01*
X0020831Y0136075D02*
X0018204Y0136075D01*
X0018891Y0137673D02*
X0020143Y0137673D01*
X0020117Y0139272D02*
X0018917Y0139272D01*
X0018344Y0140870D02*
X0020690Y0140870D01*
X0022333Y0142469D02*
X0016701Y0142469D01*
X0009286Y0132878D02*
X0053578Y0132878D01*
X0052327Y0131279D02*
X0009286Y0131279D01*
X0009286Y0129681D02*
X0052120Y0129681D01*
X0052865Y0128082D02*
X0012551Y0128082D01*
X0010656Y0128082D02*
X0009286Y0128082D01*
X0009286Y0121688D02*
X0079040Y0121688D01*
X0078892Y0120090D02*
X0077798Y0120090D01*
X0079457Y0118491D02*
X0079779Y0118491D01*
X0080162Y0123287D02*
X0014329Y0123287D01*
X0019195Y0112097D02*
X0031177Y0112097D01*
X0030152Y0110499D02*
X0020220Y0110499D01*
X0020242Y0108900D02*
X0030131Y0108900D01*
X0031126Y0107302D02*
X0019246Y0107302D01*
X0032025Y0134881D02*
X0033642Y0134211D01*
X0035392Y0134211D01*
X0037009Y0134881D01*
X0038247Y0136119D01*
X0038917Y0137736D01*
X0038917Y0139486D01*
X0038247Y0141103D01*
X0037009Y0142341D01*
X0035392Y0143011D01*
X0033642Y0143011D01*
X0032025Y0142341D01*
X0030787Y0141103D01*
X0030117Y0139486D01*
X0030117Y0137736D01*
X0030787Y0136119D01*
X0032025Y0134881D01*
X0033001Y0134476D02*
X0026033Y0134476D01*
X0028204Y0136075D02*
X0030831Y0136075D01*
X0030143Y0137673D02*
X0028891Y0137673D01*
X0028917Y0139272D02*
X0030117Y0139272D01*
X0030690Y0140870D02*
X0028344Y0140870D01*
X0026701Y0142469D02*
X0032333Y0142469D01*
X0036701Y0142469D02*
X0041661Y0142469D01*
X0041390Y0142272D02*
X0042001Y0142716D01*
X0042674Y0143059D01*
X0043393Y0143293D01*
X0044139Y0143411D01*
X0044317Y0143411D01*
X0044317Y0138811D01*
X0039717Y0138811D01*
X0039717Y0138989D01*
X0039835Y0139735D01*
X0040069Y0140454D01*
X0040412Y0141127D01*
X0040856Y0141738D01*
X0041390Y0142272D01*
X0040281Y0140870D02*
X0038344Y0140870D01*
X0038917Y0139272D02*
X0039762Y0139272D01*
X0039806Y0137673D02*
X0038891Y0137673D01*
X0038204Y0136075D02*
X0040426Y0136075D01*
X0042059Y0134476D02*
X0036033Y0134476D01*
X0044317Y0134476D02*
X0044717Y0134476D01*
X0044717Y0136075D02*
X0044317Y0136075D01*
X0044317Y0137673D02*
X0044717Y0137673D01*
X0044717Y0139272D02*
X0044317Y0139272D01*
X0044317Y0140870D02*
X0044717Y0140870D01*
X0044717Y0142469D02*
X0044317Y0142469D01*
X0074806Y0110499D02*
X0093843Y0110499D01*
X0093843Y0112097D02*
X0075418Y0112097D01*
X0075504Y0084923D02*
X0075553Y0084923D01*
X0076205Y0083324D02*
X0077786Y0083324D01*
X0077773Y0081726D02*
X0075980Y0081726D01*
X0074642Y0080127D02*
X0078773Y0080127D01*
X0065608Y0059346D02*
X0051868Y0059346D01*
X0052896Y0057748D02*
X0064176Y0057748D01*
X0063931Y0056149D02*
X0052921Y0056149D01*
X0051929Y0054551D02*
X0064586Y0054551D01*
X0064719Y0040164D02*
X0009286Y0040164D01*
X0009286Y0038566D02*
X0065046Y0038566D01*
X0093059Y0040164D02*
X0093843Y0040164D01*
X0023704Y0054551D02*
X0022268Y0054551D01*
X0022414Y0052952D02*
X0021590Y0052952D01*
M02*
