%
M48
M72
T01C0.01969
T02C0.04000
%
T01
X25383Y51800
X19084Y54950
X28139Y80540
X33651Y92745
X33257Y109674
X40344Y118335
X50974Y110855
X51367Y92745
X73021Y82902
X78139Y86839
X80895Y82509
X67115Y56524
X67903Y39989
X58454Y39595
X49793Y56918
X17115Y109674
X11604Y125028
X52155Y139595
X55304Y130146
X72234Y112430
X76564Y117154
X82076Y120698
X91919Y43139
T02
X63257Y10186
X53257Y10186
X43257Y10186
X44517Y138611
X34517Y138611
X24517Y138611
X14517Y138611
M30
