G75*
%MOIN*%
%OFA0B0*%
%FSLAX25Y25*%
%IPPOS*%
%LPD*%
%AMOC8*
5,1,8,0,0,1.08239X$1,22.5*
%
%ADD10R,0.03937X0.04331*%
%ADD11R,0.04331X0.03937*%
%ADD12R,0.05500X0.01370*%
%ADD13C,0.06000*%
%ADD14R,0.05709X0.01772*%
%ADD15R,0.09449X0.06693*%
%ADD16R,0.09252X0.08701*%
%ADD17R,0.08701X0.09252*%
%ADD18C,0.01600*%
%ADD19C,0.03569*%
%ADD20C,0.03200*%
D10*
X0034793Y0039792D03*
X0041879Y0039792D03*
X0044123Y0056721D03*
X0044084Y0061839D03*
X0036997Y0061839D03*
X0037037Y0056721D03*
X0065777Y0087902D03*
X0065738Y0093808D03*
X0072824Y0093808D03*
X0072864Y0087902D03*
X0084675Y0086957D03*
X0091761Y0086957D03*
X0079753Y0061013D03*
X0079871Y0055540D03*
X0072785Y0055540D03*
X0072667Y0061013D03*
X0073808Y0038217D03*
X0080895Y0038217D03*
X0071919Y0107194D03*
X0071879Y0117430D03*
X0064793Y0117430D03*
X0064832Y0107194D03*
X0051761Y0125265D03*
X0044675Y0125265D03*
X0039714Y0125186D03*
X0032627Y0125186D03*
X0027942Y0125186D03*
X0020856Y0125186D03*
X0018690Y0115304D03*
X0011604Y0115304D03*
X0052312Y0134713D03*
X0059399Y0134713D03*
X0084320Y0115698D03*
X0091407Y0115698D03*
D11*
X0077942Y0104989D03*
X0077942Y0097902D03*
X0082391Y0050225D03*
X0082391Y0043139D03*
X0074399Y0032233D03*
X0074399Y0025146D03*
X0073021Y0043139D03*
X0073021Y0050225D03*
X0043887Y0051800D03*
X0043887Y0044713D03*
X0034832Y0044674D03*
X0034832Y0051761D03*
X0041722Y0030619D03*
X0041722Y0023532D03*
D12*
X0027879Y0085087D03*
X0027879Y0087646D03*
X0027879Y0090206D03*
X0027879Y0092765D03*
X0027879Y0095324D03*
X0027879Y0097883D03*
X0027879Y0100442D03*
X0027879Y0103001D03*
X0027879Y0105560D03*
X0027879Y0108119D03*
X0027879Y0110678D03*
X0027879Y0113237D03*
X0027879Y0115796D03*
X0027879Y0118355D03*
X0056667Y0118355D03*
X0056667Y0115796D03*
X0056667Y0113237D03*
X0056667Y0110678D03*
X0056667Y0108119D03*
X0056667Y0105560D03*
X0056667Y0103001D03*
X0056667Y0100442D03*
X0056667Y0097883D03*
X0056667Y0095324D03*
X0056667Y0092765D03*
X0056667Y0090206D03*
X0056667Y0087646D03*
X0056667Y0085087D03*
D13*
X0044517Y0135611D02*
X0044517Y0141611D01*
X0034517Y0141611D02*
X0034517Y0135611D01*
X0024517Y0135611D02*
X0024517Y0141611D01*
X0014517Y0141611D02*
X0014517Y0135611D01*
X0043257Y0013186D02*
X0043257Y0007186D01*
X0053257Y0007186D02*
X0053257Y0013186D01*
X0063257Y0013186D02*
X0063257Y0007186D01*
D14*
X0067037Y0044969D03*
X0067037Y0047528D03*
X0067037Y0050087D03*
X0067037Y0052646D03*
X0049714Y0052646D03*
X0049714Y0050087D03*
X0049714Y0047528D03*
X0049714Y0044969D03*
D15*
X0087982Y0094123D03*
X0087982Y0108690D03*
D16*
X0024989Y0023670D03*
X0024989Y0011387D03*
X0016722Y0063749D03*
X0016722Y0076032D03*
X0016722Y0089379D03*
X0016722Y0101662D03*
D17*
X0039301Y0072272D03*
X0051584Y0072272D03*
X0064930Y0072272D03*
X0077214Y0072272D03*
X0064615Y0029359D03*
X0075521Y0012824D03*
X0087804Y0012824D03*
X0052332Y0029359D03*
D18*
X0009286Y0004600D02*
X0009286Y0111369D01*
X0009398Y0111339D01*
X0011419Y0111339D01*
X0011419Y0115120D01*
X0011788Y0115120D01*
X0011788Y0111339D01*
X0013809Y0111339D01*
X0014267Y0111461D01*
X0014677Y0111698D01*
X0015013Y0112033D01*
X0015249Y0112444D01*
X0015322Y0112714D01*
X0015322Y0112559D01*
X0016142Y0111739D01*
X0017077Y0111739D01*
X0017779Y0111037D01*
X0023329Y0111037D01*
X0023329Y0110678D01*
X0027879Y0110678D01*
X0027879Y0110678D01*
X0023329Y0110678D01*
X0023329Y0109756D01*
X0023452Y0109298D01*
X0023689Y0108888D01*
X0023729Y0108847D01*
X0023729Y0106854D01*
X0023744Y0106839D01*
X0023729Y0106825D01*
X0023729Y0104295D01*
X0023744Y0104280D01*
X0023729Y0104266D01*
X0023729Y0101736D01*
X0023744Y0101721D01*
X0023729Y0101707D01*
X0023729Y0099177D01*
X0023744Y0099162D01*
X0023729Y0099148D01*
X0023729Y0097524D01*
X0023148Y0097524D01*
X0023148Y0100862D01*
X0017522Y0100862D01*
X0017522Y0102462D01*
X0023148Y0102462D01*
X0023148Y0106250D01*
X0023025Y0106707D01*
X0022788Y0107118D01*
X0022453Y0107453D01*
X0022043Y0107690D01*
X0021585Y0107813D01*
X0017522Y0107813D01*
X0017522Y0102462D01*
X0015922Y0102462D01*
X0015922Y0107813D01*
X0011859Y0107813D01*
X0011401Y0107690D01*
X0010991Y0107453D01*
X0010655Y0107118D01*
X0010418Y0106707D01*
X0010296Y0106250D01*
X0010296Y0102462D01*
X0015922Y0102462D01*
X0015922Y0100862D01*
X0017522Y0100862D01*
X0017522Y0095512D01*
X0019744Y0095512D01*
X0019361Y0095129D01*
X0011516Y0095129D01*
X0010696Y0094309D01*
X0010696Y0084448D01*
X0011516Y0083628D01*
X0021928Y0083628D01*
X0022748Y0084448D01*
X0022748Y0092293D01*
X0023329Y0092875D01*
X0023329Y0092765D01*
X0027879Y0092765D01*
X0027879Y0092764D01*
X0023329Y0092764D01*
X0023329Y0091843D01*
X0023452Y0091385D01*
X0023689Y0090974D01*
X0023729Y0090934D01*
X0023729Y0088941D01*
X0023744Y0088926D01*
X0023729Y0088911D01*
X0023729Y0086382D01*
X0023744Y0086367D01*
X0023729Y0086352D01*
X0023729Y0083822D01*
X0024549Y0083002D01*
X0025679Y0083002D01*
X0025679Y0082584D01*
X0025440Y0082344D01*
X0024955Y0081174D01*
X0024955Y0080467D01*
X0022748Y0078260D01*
X0022748Y0080963D01*
X0021928Y0081783D01*
X0011516Y0081783D01*
X0010696Y0080963D01*
X0010696Y0071102D01*
X0011516Y0070282D01*
X0021928Y0070282D01*
X0022748Y0071102D01*
X0022748Y0073832D01*
X0024542Y0073832D01*
X0028066Y0077356D01*
X0028772Y0077356D01*
X0029943Y0077841D01*
X0030839Y0078736D01*
X0031323Y0079907D01*
X0031323Y0081174D01*
X0030839Y0082344D01*
X0030180Y0083002D01*
X0031209Y0083002D01*
X0032029Y0083822D01*
X0032029Y0086352D01*
X0032015Y0086367D01*
X0032029Y0086382D01*
X0032029Y0088911D01*
X0032015Y0088926D01*
X0032029Y0088941D01*
X0032029Y0090934D01*
X0032070Y0090974D01*
X0032307Y0091385D01*
X0032429Y0091843D01*
X0032429Y0092764D01*
X0027879Y0092764D01*
X0027879Y0092765D01*
X0033631Y0092765D01*
X0033651Y0092745D01*
X0032429Y0092765D02*
X0032429Y0093687D01*
X0032307Y0094144D01*
X0032070Y0094555D01*
X0032029Y0094595D01*
X0032029Y0096589D01*
X0032015Y0096603D01*
X0032029Y0096618D01*
X0032029Y0098242D01*
X0035566Y0098242D01*
X0051761Y0114437D01*
X0052117Y0114081D01*
X0052117Y0113237D01*
X0052117Y0112315D01*
X0052239Y0111857D01*
X0052476Y0111447D01*
X0052517Y0111406D01*
X0052517Y0109950D01*
X0052476Y0109909D01*
X0052239Y0109499D01*
X0052117Y0109041D01*
X0052117Y0108119D01*
X0056667Y0108119D01*
X0061217Y0108119D01*
X0061217Y0109041D01*
X0061094Y0109499D01*
X0060857Y0109909D01*
X0060817Y0109950D01*
X0060817Y0111406D01*
X0060857Y0111447D01*
X0061094Y0111857D01*
X0061217Y0112315D01*
X0061217Y0113237D01*
X0061217Y0113596D01*
X0064070Y0113596D01*
X0064339Y0113865D01*
X0067341Y0113865D01*
X0068161Y0114685D01*
X0068161Y0114840D01*
X0068233Y0114570D01*
X0068470Y0114159D01*
X0068806Y0113824D01*
X0069216Y0113587D01*
X0069674Y0113465D01*
X0071695Y0113465D01*
X0071695Y0117246D01*
X0072064Y0117246D01*
X0072064Y0117614D01*
X0075648Y0117614D01*
X0075648Y0119832D01*
X0075525Y0120290D01*
X0075288Y0120700D01*
X0074953Y0121036D01*
X0074543Y0121273D01*
X0074085Y0121395D01*
X0072064Y0121395D01*
X0072064Y0117614D01*
X0071695Y0117614D01*
X0071695Y0121395D01*
X0069674Y0121395D01*
X0069216Y0121273D01*
X0068806Y0121036D01*
X0068470Y0120700D01*
X0068233Y0120290D01*
X0068161Y0120020D01*
X0068161Y0120175D01*
X0067341Y0120995D01*
X0062244Y0120995D01*
X0061424Y0120175D01*
X0061424Y0117996D01*
X0060817Y0117996D01*
X0060817Y0119620D01*
X0059997Y0120440D01*
X0053961Y0120440D01*
X0053961Y0121699D01*
X0054310Y0121699D01*
X0055130Y0122519D01*
X0055130Y0126962D01*
X0055938Y0126962D01*
X0057108Y0127447D01*
X0058004Y0128343D01*
X0058489Y0129513D01*
X0058489Y0130219D01*
X0059417Y0131148D01*
X0061947Y0131148D01*
X0062767Y0131968D01*
X0062767Y0137459D01*
X0061947Y0138279D01*
X0056851Y0138279D01*
X0056030Y0137459D01*
X0056030Y0133984D01*
X0055681Y0133634D01*
X0055681Y0137459D01*
X0054999Y0138141D01*
X0055339Y0138962D01*
X0055339Y0140229D01*
X0054854Y0141399D01*
X0053959Y0142295D01*
X0052788Y0142780D01*
X0051521Y0142780D01*
X0050351Y0142295D01*
X0049455Y0141399D01*
X0048971Y0140229D01*
X0048971Y0138962D01*
X0049403Y0137918D01*
X0048944Y0137459D01*
X0048944Y0131968D01*
X0049764Y0131148D01*
X0052273Y0131148D01*
X0052120Y0130780D01*
X0052120Y0129513D01*
X0052403Y0128830D01*
X0049213Y0128830D01*
X0048393Y0128010D01*
X0048393Y0122519D01*
X0049213Y0121699D01*
X0049561Y0121699D01*
X0049561Y0118459D01*
X0033744Y0102642D01*
X0032029Y0102642D01*
X0032029Y0104266D01*
X0032015Y0104280D01*
X0032029Y0104295D01*
X0032029Y0106825D01*
X0032015Y0106839D01*
X0032029Y0106854D01*
X0032029Y0108847D01*
X0032070Y0108888D01*
X0032307Y0109298D01*
X0032429Y0109756D01*
X0032429Y0110678D01*
X0032429Y0111037D01*
X0036157Y0111037D01*
X0040271Y0115151D01*
X0040977Y0115151D01*
X0042148Y0115636D01*
X0043043Y0116532D01*
X0043528Y0117702D01*
X0043528Y0118969D01*
X0043043Y0120139D01*
X0042148Y0121035D01*
X0040977Y0121520D01*
X0039710Y0121520D01*
X0038540Y0121035D01*
X0037644Y0120139D01*
X0037160Y0118969D01*
X0037160Y0118262D01*
X0034334Y0115437D01*
X0032029Y0115437D01*
X0032029Y0117061D01*
X0032015Y0117076D01*
X0032029Y0117090D01*
X0032029Y0119394D01*
X0033539Y0120903D01*
X0034256Y0121620D01*
X0035176Y0121620D01*
X0035996Y0122441D01*
X0035996Y0125793D01*
X0036345Y0125443D01*
X0036345Y0122441D01*
X0037165Y0121620D01*
X0042262Y0121620D01*
X0042341Y0121699D01*
X0047223Y0121699D01*
X0048043Y0122519D01*
X0048043Y0128010D01*
X0047223Y0128830D01*
X0042126Y0128830D01*
X0042047Y0128751D01*
X0039260Y0128751D01*
X0036717Y0131294D01*
X0036717Y0131760D01*
X0037009Y0131881D01*
X0038247Y0133119D01*
X0038917Y0134736D01*
X0038917Y0142486D01*
X0038247Y0144103D01*
X0037009Y0145341D01*
X0035392Y0146011D01*
X0033642Y0146011D01*
X0032025Y0145341D01*
X0030787Y0144103D01*
X0030117Y0142486D01*
X0030117Y0134736D01*
X0030787Y0133119D01*
X0032025Y0131881D01*
X0032317Y0131760D01*
X0032317Y0129471D01*
X0033037Y0128751D01*
X0027488Y0128751D01*
X0026717Y0129522D01*
X0026717Y0131760D01*
X0027009Y0131881D01*
X0028247Y0133119D01*
X0028917Y0134736D01*
X0028917Y0142486D01*
X0028247Y0144103D01*
X0027009Y0145341D01*
X0025392Y0146011D01*
X0023642Y0146011D01*
X0022025Y0145341D01*
X0020787Y0144103D01*
X0020117Y0142486D01*
X0020117Y0134736D01*
X0020787Y0133119D01*
X0022025Y0131881D01*
X0022317Y0131760D01*
X0022317Y0128751D01*
X0018307Y0128751D01*
X0017487Y0127931D01*
X0017487Y0122441D01*
X0018307Y0121620D01*
X0018656Y0121620D01*
X0018656Y0118869D01*
X0016142Y0118869D01*
X0015322Y0118049D01*
X0015322Y0117894D01*
X0015249Y0118164D01*
X0015013Y0118575D01*
X0014677Y0118910D01*
X0014267Y0119147D01*
X0013809Y0119269D01*
X0011788Y0119269D01*
X0011788Y0115488D01*
X0011419Y0115488D01*
X0011419Y0119269D01*
X0009398Y0119269D01*
X0009286Y0119239D01*
X0009286Y0148213D01*
X0093843Y0148213D01*
X0093843Y0119263D01*
X0088858Y0119263D01*
X0088038Y0118443D01*
X0088038Y0118288D01*
X0087966Y0118558D01*
X0087729Y0118968D01*
X0087394Y0119303D01*
X0086983Y0119540D01*
X0086526Y0119663D01*
X0084504Y0119663D01*
X0084504Y0115882D01*
X0084136Y0115882D01*
X0084136Y0119663D01*
X0082115Y0119663D01*
X0081657Y0119540D01*
X0081246Y0119303D01*
X0080911Y0118968D01*
X0080674Y0118558D01*
X0080552Y0118100D01*
X0080552Y0115882D01*
X0084136Y0115882D01*
X0084136Y0115513D01*
X0080552Y0115513D01*
X0080552Y0113295D01*
X0080674Y0112837D01*
X0080911Y0112427D01*
X0081246Y0112092D01*
X0081657Y0111855D01*
X0081857Y0111801D01*
X0081857Y0107189D01*
X0081508Y0107189D01*
X0081508Y0107537D01*
X0080688Y0108357D01*
X0075687Y0108357D01*
X0075687Y0109596D01*
X0075564Y0110054D01*
X0075327Y0110464D01*
X0074992Y0110799D01*
X0074582Y0111036D01*
X0074124Y0111159D01*
X0072103Y0111159D01*
X0072103Y0107378D01*
X0071734Y0107378D01*
X0071734Y0111159D01*
X0069713Y0111159D01*
X0069255Y0111036D01*
X0068845Y0110799D01*
X0068510Y0110464D01*
X0068273Y0110054D01*
X0068201Y0109784D01*
X0068201Y0109939D01*
X0067380Y0110759D01*
X0062284Y0110759D01*
X0061464Y0109939D01*
X0061464Y0107760D01*
X0061217Y0107760D01*
X0061217Y0108119D01*
X0056667Y0108119D01*
X0056667Y0108119D01*
X0053710Y0108119D01*
X0050974Y0110855D01*
X0053356Y0113237D01*
X0056667Y0113237D01*
X0061217Y0113237D01*
X0056667Y0113237D01*
X0056667Y0113237D01*
X0052117Y0113237D01*
X0056667Y0113237D01*
X0056667Y0113237D01*
X0056667Y0115796D02*
X0053513Y0115796D01*
X0051761Y0117548D01*
X0034655Y0100442D01*
X0027879Y0100442D01*
X0027879Y0097883D01*
X0027879Y0095324D02*
X0022667Y0095324D01*
X0016722Y0089379D01*
X0015922Y0095512D02*
X0015922Y0100862D01*
X0010296Y0100862D01*
X0010296Y0097075D01*
X0010418Y0096617D01*
X0010655Y0096207D01*
X0010991Y0095871D01*
X0011401Y0095634D01*
X0011859Y0095512D01*
X0015922Y0095512D01*
X0015922Y0096112D02*
X0017522Y0096112D01*
X0017522Y0097711D02*
X0015922Y0097711D01*
X0015922Y0099309D02*
X0017522Y0099309D01*
X0017522Y0100908D02*
X0023729Y0100908D01*
X0023729Y0102506D02*
X0023148Y0102506D01*
X0023148Y0104105D02*
X0023729Y0104105D01*
X0023729Y0105703D02*
X0023148Y0105703D01*
X0022604Y0107302D02*
X0023729Y0107302D01*
X0023682Y0108900D02*
X0009286Y0108900D01*
X0009286Y0107302D02*
X0010839Y0107302D01*
X0010296Y0105703D02*
X0009286Y0105703D01*
X0009286Y0104105D02*
X0010296Y0104105D01*
X0010296Y0102506D02*
X0009286Y0102506D01*
X0009286Y0100908D02*
X0015922Y0100908D01*
X0016722Y0101406D02*
X0016722Y0101662D01*
X0017115Y0101662D01*
X0017115Y0109674D01*
X0017522Y0107302D02*
X0015922Y0107302D01*
X0015922Y0105703D02*
X0017522Y0105703D01*
X0017522Y0104105D02*
X0015922Y0104105D01*
X0015922Y0102506D02*
X0017522Y0102506D01*
X0023148Y0099309D02*
X0023729Y0099309D01*
X0023729Y0097711D02*
X0023148Y0097711D01*
X0023491Y0091317D02*
X0022748Y0091317D01*
X0022748Y0089718D02*
X0023729Y0089718D01*
X0023729Y0088120D02*
X0022748Y0088120D01*
X0022748Y0086521D02*
X0023729Y0086521D01*
X0023729Y0084923D02*
X0022748Y0084923D01*
X0024228Y0083324D02*
X0009286Y0083324D01*
X0009286Y0081726D02*
X0011459Y0081726D01*
X0010696Y0080127D02*
X0009286Y0080127D01*
X0009286Y0078529D02*
X0010696Y0078529D01*
X0010696Y0076930D02*
X0009286Y0076930D01*
X0009286Y0075332D02*
X0010696Y0075332D01*
X0010696Y0073733D02*
X0009286Y0073733D01*
X0009286Y0072134D02*
X0010696Y0072134D01*
X0011262Y0070536D02*
X0009286Y0070536D01*
X0009286Y0068937D02*
X0010501Y0068937D01*
X0010418Y0068794D02*
X0010296Y0068336D01*
X0010296Y0064549D01*
X0015922Y0064549D01*
X0015922Y0069899D01*
X0011859Y0069899D01*
X0011401Y0069777D01*
X0010991Y0069540D01*
X0010655Y0069204D01*
X0010418Y0068794D01*
X0010296Y0067339D02*
X0009286Y0067339D01*
X0009286Y0065740D02*
X0010296Y0065740D01*
X0009286Y0064142D02*
X0015922Y0064142D01*
X0015922Y0064549D02*
X0015922Y0062949D01*
X0017522Y0062949D01*
X0017522Y0064549D01*
X0023148Y0064549D01*
X0023148Y0068336D01*
X0023025Y0068794D01*
X0022788Y0069204D01*
X0022453Y0069540D01*
X0022043Y0069777D01*
X0021585Y0069899D01*
X0017522Y0069899D01*
X0017522Y0064549D01*
X0015922Y0064549D01*
X0016722Y0063749D02*
X0019084Y0063749D01*
X0019084Y0054950D01*
X0017522Y0057598D02*
X0021585Y0057598D01*
X0022043Y0057721D01*
X0022453Y0057958D01*
X0022788Y0058293D01*
X0023025Y0058704D01*
X0023148Y0059161D01*
X0023148Y0062949D01*
X0017522Y0062949D01*
X0017522Y0057598D01*
X0017522Y0057748D02*
X0015922Y0057748D01*
X0015922Y0057598D02*
X0015922Y0062949D01*
X0010296Y0062949D01*
X0010296Y0059161D01*
X0010418Y0058704D01*
X0010655Y0058293D01*
X0010991Y0057958D01*
X0011401Y0057721D01*
X0011859Y0057598D01*
X0015922Y0057598D01*
X0015922Y0059346D02*
X0017522Y0059346D01*
X0017522Y0060945D02*
X0015922Y0060945D01*
X0015922Y0062543D02*
X0017522Y0062543D01*
X0017522Y0064142D02*
X0033629Y0064142D01*
X0033629Y0064585D02*
X0033629Y0059094D01*
X0033668Y0059055D01*
X0033668Y0055529D01*
X0032430Y0055529D01*
X0031972Y0055406D01*
X0031561Y0055169D01*
X0031226Y0054834D01*
X0030989Y0054424D01*
X0030867Y0053966D01*
X0030867Y0051945D01*
X0034648Y0051945D01*
X0034648Y0051576D01*
X0030867Y0051576D01*
X0030867Y0049555D01*
X0030989Y0049097D01*
X0031226Y0048687D01*
X0031561Y0048352D01*
X0031972Y0048115D01*
X0032242Y0048043D01*
X0032087Y0048043D01*
X0031267Y0047222D01*
X0031267Y0042126D01*
X0031424Y0041968D01*
X0031424Y0037047D01*
X0032244Y0036227D01*
X0037341Y0036227D01*
X0038161Y0037047D01*
X0038161Y0041889D01*
X0038397Y0042126D01*
X0038397Y0045128D01*
X0040074Y0046805D01*
X0040322Y0047053D01*
X0040322Y0043357D01*
X0039331Y0043357D01*
X0038511Y0042537D01*
X0038511Y0037047D01*
X0039331Y0036227D01*
X0039522Y0036227D01*
X0039522Y0033987D01*
X0038977Y0033987D01*
X0038156Y0033167D01*
X0038156Y0028070D01*
X0038977Y0027250D01*
X0044467Y0027250D01*
X0045287Y0028070D01*
X0045287Y0033167D01*
X0044467Y0033987D01*
X0043922Y0033987D01*
X0043922Y0036227D01*
X0044428Y0036227D01*
X0045248Y0037047D01*
X0045248Y0040049D01*
X0046005Y0040807D01*
X0046005Y0032089D01*
X0046462Y0030986D01*
X0046582Y0030867D01*
X0046582Y0024153D01*
X0047402Y0023333D01*
X0057262Y0023333D01*
X0058082Y0024153D01*
X0058082Y0034565D01*
X0057874Y0034773D01*
X0059813Y0036712D01*
X0060258Y0036896D01*
X0061154Y0037792D01*
X0061638Y0038962D01*
X0061638Y0040229D01*
X0061154Y0041399D01*
X0060258Y0042295D01*
X0059087Y0042780D01*
X0057821Y0042780D01*
X0056650Y0042295D01*
X0055755Y0041399D01*
X0055570Y0040954D01*
X0052005Y0037389D01*
X0052005Y0042683D01*
X0053148Y0042683D01*
X0053968Y0043504D01*
X0053968Y0050446D01*
X0056303Y0050446D01*
X0058862Y0047887D01*
X0062782Y0047887D01*
X0062782Y0043504D01*
X0063602Y0042683D01*
X0069456Y0042683D01*
X0069456Y0040590D01*
X0070276Y0039770D01*
X0070440Y0039770D01*
X0070440Y0035472D01*
X0070982Y0034930D01*
X0070834Y0034781D01*
X0070834Y0029685D01*
X0071654Y0028865D01*
X0077144Y0028865D01*
X0077964Y0029685D01*
X0077964Y0034781D01*
X0077177Y0035569D01*
X0077177Y0038824D01*
X0077527Y0038475D01*
X0077527Y0035472D01*
X0078347Y0034652D01*
X0083443Y0034652D01*
X0084263Y0035472D01*
X0084263Y0039370D01*
X0084793Y0039370D01*
X0085251Y0039493D01*
X0085662Y0039730D01*
X0085997Y0040065D01*
X0086234Y0040475D01*
X0086356Y0040933D01*
X0086356Y0042954D01*
X0082575Y0042954D01*
X0082575Y0043323D01*
X0086356Y0043323D01*
X0086356Y0045344D01*
X0086234Y0045802D01*
X0085997Y0046212D01*
X0085662Y0046547D01*
X0085251Y0046784D01*
X0084981Y0046857D01*
X0085136Y0046857D01*
X0085956Y0047677D01*
X0085956Y0052774D01*
X0085136Y0053594D01*
X0084591Y0053594D01*
X0084591Y0053932D01*
X0083240Y0055283D01*
X0083240Y0058285D01*
X0083122Y0058404D01*
X0083122Y0063758D01*
X0082302Y0064578D01*
X0079343Y0064578D01*
X0079414Y0064649D01*
X0079414Y0066246D01*
X0082144Y0066246D01*
X0082964Y0067067D01*
X0082964Y0077478D01*
X0082144Y0078298D01*
X0072284Y0078298D01*
X0071464Y0077478D01*
X0071464Y0067067D01*
X0072284Y0066246D01*
X0074789Y0066246D01*
X0073121Y0064578D01*
X0070118Y0064578D01*
X0069298Y0063758D01*
X0069298Y0058267D01*
X0069416Y0058149D01*
X0069416Y0055332D01*
X0067037Y0055332D01*
X0067037Y0052647D01*
X0067037Y0052647D01*
X0067037Y0055332D01*
X0063945Y0055332D01*
X0063488Y0055210D01*
X0063077Y0054973D01*
X0062742Y0054637D01*
X0062505Y0054227D01*
X0062382Y0053769D01*
X0062382Y0052647D01*
X0067037Y0052647D01*
X0067037Y0052646D02*
X0067115Y0052725D01*
X0067115Y0056524D01*
X0067037Y0054551D02*
X0067037Y0054551D01*
X0067037Y0052952D02*
X0067037Y0052952D01*
X0067037Y0052647D02*
X0067037Y0052646D01*
X0062382Y0052646D01*
X0062382Y0052287D01*
X0060684Y0052287D01*
X0059414Y0053558D01*
X0058125Y0054846D01*
X0053234Y0054846D01*
X0053148Y0054932D01*
X0052310Y0054932D01*
X0052492Y0055114D01*
X0052977Y0056285D01*
X0052977Y0057552D01*
X0052492Y0058722D01*
X0051596Y0059618D01*
X0050426Y0060102D01*
X0049159Y0060102D01*
X0047989Y0059618D01*
X0047492Y0059121D01*
X0047492Y0059467D01*
X0047452Y0059506D01*
X0047452Y0064585D01*
X0046632Y0065405D01*
X0043630Y0065405D01*
X0042788Y0066246D01*
X0044231Y0066246D01*
X0045051Y0067067D01*
X0045051Y0077478D01*
X0044231Y0078298D01*
X0034370Y0078298D01*
X0033550Y0077478D01*
X0033550Y0067067D01*
X0034370Y0066246D01*
X0037101Y0066246D01*
X0037101Y0065712D01*
X0037407Y0065405D01*
X0034449Y0065405D01*
X0033629Y0064585D01*
X0033629Y0062543D02*
X0023148Y0062543D01*
X0023148Y0060945D02*
X0033629Y0060945D01*
X0033629Y0059346D02*
X0023148Y0059346D01*
X0022089Y0057748D02*
X0033668Y0057748D01*
X0033668Y0056149D02*
X0009286Y0056149D01*
X0009286Y0054551D02*
X0031063Y0054551D01*
X0030867Y0052952D02*
X0009286Y0052952D01*
X0009286Y0051354D02*
X0030867Y0051354D01*
X0030867Y0049755D02*
X0009286Y0049755D01*
X0009286Y0048157D02*
X0031899Y0048157D01*
X0031267Y0046558D02*
X0009286Y0046558D01*
X0009286Y0044960D02*
X0031267Y0044960D01*
X0031267Y0043361D02*
X0009286Y0043361D01*
X0009286Y0041763D02*
X0031424Y0041763D01*
X0031424Y0040164D02*
X0009286Y0040164D01*
X0009286Y0038566D02*
X0031424Y0038566D01*
X0031504Y0036967D02*
X0009286Y0036967D01*
X0009286Y0035369D02*
X0039522Y0035369D01*
X0038759Y0033770D02*
X0009286Y0033770D01*
X0009286Y0032172D02*
X0038156Y0032172D01*
X0038156Y0030573D02*
X0009286Y0030573D01*
X0009286Y0028975D02*
X0019338Y0028975D01*
X0018964Y0028600D02*
X0018964Y0018740D01*
X0019784Y0017920D01*
X0030195Y0017920D01*
X0031015Y0018740D01*
X0031015Y0021470D01*
X0038156Y0021470D01*
X0038156Y0020984D01*
X0038977Y0020164D01*
X0044467Y0020164D01*
X0045287Y0020984D01*
X0045287Y0026081D01*
X0044467Y0026901D01*
X0038977Y0026901D01*
X0038156Y0026081D01*
X0038156Y0025870D01*
X0031015Y0025870D01*
X0031015Y0028600D01*
X0030195Y0029420D01*
X0019784Y0029420D01*
X0018964Y0028600D01*
X0018964Y0027376D02*
X0009286Y0027376D01*
X0009286Y0025778D02*
X0018964Y0025778D01*
X0018964Y0024179D02*
X0009286Y0024179D01*
X0009286Y0022581D02*
X0018964Y0022581D01*
X0018964Y0020982D02*
X0009286Y0020982D01*
X0009286Y0019384D02*
X0018964Y0019384D01*
X0019784Y0017137D02*
X0018964Y0016317D01*
X0018964Y0006456D01*
X0019784Y0005636D01*
X0030195Y0005636D01*
X0031015Y0006456D01*
X0031015Y0007986D01*
X0038857Y0007986D01*
X0038857Y0006311D01*
X0039527Y0004693D01*
X0039621Y0004600D01*
X0009286Y0004600D01*
X0009286Y0004997D02*
X0039401Y0004997D01*
X0038857Y0006596D02*
X0031015Y0006596D01*
X0031015Y0012386D02*
X0031015Y0016317D01*
X0030195Y0017137D01*
X0019784Y0017137D01*
X0018964Y0016187D02*
X0009286Y0016187D01*
X0009286Y0017785D02*
X0051879Y0017785D01*
X0052133Y0017868D02*
X0051415Y0017634D01*
X0050741Y0017291D01*
X0050130Y0016847D01*
X0049596Y0016313D01*
X0049152Y0015702D01*
X0048809Y0015028D01*
X0048575Y0014310D01*
X0048457Y0013564D01*
X0048457Y0010386D01*
X0053057Y0010386D01*
X0053057Y0009986D01*
X0048457Y0009986D01*
X0048457Y0006808D01*
X0048575Y0006062D01*
X0048809Y0005343D01*
X0049152Y0004670D01*
X0049203Y0004600D01*
X0046894Y0004600D01*
X0046987Y0004693D01*
X0047657Y0006311D01*
X0047657Y0014061D01*
X0046987Y0015678D01*
X0045750Y0016916D01*
X0044132Y0017586D01*
X0042382Y0017586D01*
X0040765Y0016916D01*
X0039527Y0015678D01*
X0038857Y0014061D01*
X0038857Y0012386D01*
X0031015Y0012386D01*
X0031015Y0012990D02*
X0038857Y0012990D01*
X0039076Y0014588D02*
X0031015Y0014588D01*
X0031015Y0016187D02*
X0040035Y0016187D01*
X0038158Y0020982D02*
X0031015Y0020982D01*
X0031015Y0019384D02*
X0081854Y0019384D01*
X0082631Y0018606D02*
X0082054Y0018030D01*
X0082054Y0007618D01*
X0082874Y0006798D01*
X0092735Y0006798D01*
X0093555Y0007618D01*
X0093555Y0018030D01*
X0092735Y0018850D01*
X0088610Y0018850D01*
X0080113Y0027346D01*
X0077964Y0027346D01*
X0077964Y0027695D01*
X0077144Y0028515D01*
X0071654Y0028515D01*
X0070834Y0027695D01*
X0070834Y0022598D01*
X0071654Y0021778D01*
X0077144Y0021778D01*
X0077964Y0022598D01*
X0077964Y0022946D01*
X0078291Y0022946D01*
X0082631Y0018606D01*
X0082054Y0017785D02*
X0081271Y0017785D01*
X0081271Y0018030D02*
X0080451Y0018850D01*
X0070591Y0018850D01*
X0069771Y0018030D01*
X0069771Y0015024D01*
X0067258Y0015024D01*
X0066987Y0015678D01*
X0065750Y0016916D01*
X0064132Y0017586D01*
X0062382Y0017586D01*
X0060765Y0016916D01*
X0059527Y0015678D01*
X0058857Y0014061D01*
X0058857Y0006311D01*
X0059527Y0004693D01*
X0059621Y0004600D01*
X0057312Y0004600D01*
X0057363Y0004670D01*
X0057706Y0005343D01*
X0057939Y0006062D01*
X0058057Y0006808D01*
X0058057Y0009986D01*
X0053457Y0009986D01*
X0053457Y0010386D01*
X0053057Y0010386D01*
X0053057Y0017986D01*
X0052879Y0017986D01*
X0052133Y0017868D01*
X0053057Y0017785D02*
X0053457Y0017785D01*
X0053457Y0017986D02*
X0053457Y0010386D01*
X0058057Y0010386D01*
X0058057Y0013564D01*
X0057939Y0014310D01*
X0057706Y0015028D01*
X0057363Y0015702D01*
X0056918Y0016313D01*
X0056384Y0016847D01*
X0055773Y0017291D01*
X0055100Y0017634D01*
X0054381Y0017868D01*
X0053635Y0017986D01*
X0053457Y0017986D01*
X0054635Y0017785D02*
X0069771Y0017785D01*
X0069771Y0016187D02*
X0066479Y0016187D01*
X0065895Y0012824D02*
X0063257Y0010186D01*
X0065895Y0012824D02*
X0075521Y0012824D01*
X0081271Y0007618D02*
X0080451Y0006798D01*
X0070591Y0006798D01*
X0069771Y0007618D01*
X0069771Y0010624D01*
X0067657Y0010624D01*
X0067657Y0006311D01*
X0066987Y0004693D01*
X0066894Y0004600D01*
X0093843Y0004600D01*
X0093843Y0083392D01*
X0089213Y0083392D01*
X0088393Y0084212D01*
X0088393Y0084367D01*
X0088320Y0084097D01*
X0088083Y0083687D01*
X0087748Y0083352D01*
X0087338Y0083115D01*
X0086880Y0082992D01*
X0084859Y0082992D01*
X0084859Y0086773D01*
X0084490Y0086773D01*
X0080906Y0086773D01*
X0080906Y0084555D01*
X0081029Y0084097D01*
X0081266Y0083687D01*
X0081601Y0083352D01*
X0082011Y0083115D01*
X0082469Y0082992D01*
X0084490Y0082992D01*
X0084490Y0086773D01*
X0084490Y0087142D01*
X0080906Y0087142D01*
X0080906Y0089360D01*
X0081029Y0089818D01*
X0081266Y0090228D01*
X0081601Y0090563D01*
X0081857Y0090711D01*
X0081857Y0095702D01*
X0081508Y0095702D01*
X0081508Y0095354D01*
X0080688Y0094534D01*
X0076593Y0094534D01*
X0076593Y0093992D01*
X0073008Y0093992D01*
X0073008Y0093624D01*
X0073008Y0089843D01*
X0073048Y0089843D01*
X0073048Y0088087D01*
X0072679Y0088087D01*
X0072679Y0091868D01*
X0072640Y0091868D01*
X0072640Y0093624D01*
X0073008Y0093624D01*
X0076593Y0093624D01*
X0076593Y0091406D01*
X0076470Y0090948D01*
X0076436Y0090889D01*
X0076509Y0090762D01*
X0076632Y0090305D01*
X0076632Y0088087D01*
X0073048Y0088087D01*
X0073048Y0087718D01*
X0076632Y0087718D01*
X0076632Y0085500D01*
X0076509Y0085042D01*
X0076272Y0084632D01*
X0075937Y0084297D01*
X0075527Y0084060D01*
X0075069Y0083937D01*
X0073048Y0083937D01*
X0073048Y0087718D01*
X0072679Y0087718D01*
X0072679Y0083937D01*
X0070658Y0083937D01*
X0070200Y0084060D01*
X0069790Y0084297D01*
X0069455Y0084632D01*
X0069218Y0085042D01*
X0069145Y0085312D01*
X0069145Y0085157D01*
X0068325Y0084337D01*
X0063804Y0084337D01*
X0063804Y0078298D01*
X0069861Y0078298D01*
X0070681Y0077478D01*
X0070681Y0067067D01*
X0069861Y0066246D01*
X0060000Y0066246D01*
X0059180Y0067067D01*
X0059180Y0077478D01*
X0059404Y0077702D01*
X0059404Y0083002D01*
X0058867Y0083002D01*
X0058867Y0076444D01*
X0057334Y0074912D01*
X0057334Y0067067D01*
X0056514Y0066246D01*
X0046654Y0066246D01*
X0045834Y0067067D01*
X0045834Y0077478D01*
X0046654Y0078298D01*
X0054467Y0078298D01*
X0054467Y0083002D01*
X0053337Y0083002D01*
X0052517Y0083822D01*
X0052517Y0086352D01*
X0052531Y0086367D01*
X0052517Y0086382D01*
X0052517Y0088911D01*
X0052531Y0088926D01*
X0052517Y0088941D01*
X0052517Y0090934D01*
X0052476Y0090974D01*
X0052239Y0091385D01*
X0052117Y0091843D01*
X0052117Y0092764D01*
X0056667Y0092764D01*
X0056667Y0092765D01*
X0061217Y0092765D01*
X0061217Y0093124D01*
X0062369Y0093124D01*
X0062369Y0092405D01*
X0061217Y0092405D01*
X0061217Y0092764D01*
X0056667Y0092764D01*
X0056667Y0092765D02*
X0051387Y0092765D01*
X0051367Y0092745D01*
X0052117Y0092765D02*
X0052117Y0093687D01*
X0052239Y0094144D01*
X0052476Y0094555D01*
X0052517Y0094595D01*
X0052517Y0096589D01*
X0052531Y0096603D01*
X0052517Y0096618D01*
X0052517Y0099148D01*
X0052531Y0099162D01*
X0052517Y0099177D01*
X0052517Y0101170D01*
X0052476Y0101211D01*
X0052239Y0101621D01*
X0052117Y0102079D01*
X0052117Y0103001D01*
X0056667Y0103001D01*
X0061217Y0103001D01*
X0061217Y0103360D01*
X0064109Y0103360D01*
X0064378Y0103628D01*
X0067380Y0103628D01*
X0068201Y0104448D01*
X0068201Y0104603D01*
X0068273Y0104334D01*
X0068510Y0103923D01*
X0068845Y0103588D01*
X0069255Y0103351D01*
X0069713Y0103228D01*
X0071734Y0103228D01*
X0071734Y0107009D01*
X0072103Y0107009D01*
X0072103Y0103228D01*
X0073070Y0103228D01*
X0072484Y0102642D01*
X0061217Y0102642D01*
X0061217Y0103001D01*
X0056667Y0103001D01*
X0056667Y0103001D01*
X0053710Y0103001D01*
X0050974Y0105737D01*
X0050974Y0110855D01*
X0052175Y0112097D02*
X0049422Y0112097D01*
X0047823Y0110499D02*
X0052517Y0110499D01*
X0052117Y0108900D02*
X0046225Y0108900D01*
X0044626Y0107302D02*
X0052117Y0107302D01*
X0052117Y0107197D02*
X0052239Y0106739D01*
X0052476Y0106329D01*
X0052517Y0106288D01*
X0052517Y0104831D01*
X0052476Y0104791D01*
X0052239Y0104381D01*
X0052117Y0103923D01*
X0052117Y0103001D01*
X0056667Y0103001D01*
X0056667Y0103001D01*
X0056667Y0105560D02*
X0063198Y0105560D01*
X0064832Y0107194D01*
X0061464Y0108900D02*
X0061217Y0108900D01*
X0060817Y0110499D02*
X0062023Y0110499D01*
X0061158Y0112097D02*
X0081241Y0112097D01*
X0081857Y0110499D02*
X0075293Y0110499D01*
X0075687Y0108900D02*
X0081857Y0108900D01*
X0081857Y0107302D02*
X0081508Y0107302D01*
X0084281Y0104989D02*
X0087982Y0108690D01*
X0091407Y0112115D01*
X0091407Y0115698D01*
X0088087Y0118491D02*
X0087984Y0118491D01*
X0084504Y0118491D02*
X0084136Y0118491D01*
X0084136Y0116893D02*
X0084504Y0116893D01*
X0084320Y0115698D02*
X0082076Y0117942D01*
X0082076Y0120698D01*
X0080657Y0118491D02*
X0075648Y0118491D01*
X0075648Y0117246D02*
X0072064Y0117246D01*
X0072064Y0113465D01*
X0074085Y0113465D01*
X0074543Y0113587D01*
X0074953Y0113824D01*
X0075288Y0114159D01*
X0075525Y0114570D01*
X0075648Y0115028D01*
X0075648Y0117246D01*
X0075648Y0116893D02*
X0080552Y0116893D01*
X0080552Y0115294D02*
X0075648Y0115294D01*
X0074731Y0113696D02*
X0080552Y0113696D01*
X0076564Y0117154D02*
X0072155Y0117154D01*
X0071879Y0117430D01*
X0071695Y0116893D02*
X0072064Y0116893D01*
X0072064Y0118491D02*
X0071695Y0118491D01*
X0071695Y0120090D02*
X0072064Y0120090D01*
X0072064Y0115294D02*
X0071695Y0115294D01*
X0071695Y0113696D02*
X0072064Y0113696D01*
X0072234Y0112430D02*
X0072234Y0107587D01*
X0071879Y0107233D01*
X0071919Y0107194D01*
X0071734Y0105703D02*
X0072103Y0105703D01*
X0072103Y0104105D02*
X0071734Y0104105D01*
X0068405Y0104105D02*
X0067857Y0104105D01*
X0071734Y0108900D02*
X0072103Y0108900D01*
X0072103Y0110499D02*
X0071734Y0110499D01*
X0068544Y0110499D02*
X0067641Y0110499D01*
X0069028Y0113696D02*
X0064170Y0113696D01*
X0063159Y0115796D02*
X0064793Y0117430D01*
X0063159Y0115796D02*
X0056667Y0115796D01*
X0060817Y0118491D02*
X0061424Y0118491D01*
X0061424Y0120090D02*
X0060347Y0120090D01*
X0057744Y0128082D02*
X0093843Y0128082D01*
X0093843Y0126484D02*
X0055130Y0126484D01*
X0055130Y0124885D02*
X0093843Y0124885D01*
X0093843Y0123287D02*
X0055130Y0123287D01*
X0053961Y0121688D02*
X0093843Y0121688D01*
X0093843Y0120090D02*
X0075579Y0120090D01*
X0068180Y0120090D02*
X0068161Y0120090D01*
X0062079Y0131279D02*
X0093843Y0131279D01*
X0093843Y0129681D02*
X0058489Y0129681D01*
X0055304Y0130146D02*
X0059399Y0134241D01*
X0059399Y0134713D01*
X0062767Y0134476D02*
X0093843Y0134476D01*
X0093843Y0136075D02*
X0062767Y0136075D01*
X0062553Y0137673D02*
X0093843Y0137673D01*
X0093843Y0139272D02*
X0055339Y0139272D01*
X0055466Y0137673D02*
X0056245Y0137673D01*
X0056030Y0136075D02*
X0055681Y0136075D01*
X0055681Y0134476D02*
X0056030Y0134476D01*
X0052312Y0134713D02*
X0052155Y0134871D01*
X0052155Y0139595D01*
X0053538Y0142469D02*
X0093843Y0142469D01*
X0093843Y0140870D02*
X0055073Y0140870D01*
X0050772Y0142469D02*
X0048917Y0142469D01*
X0048917Y0142486D02*
X0048247Y0144103D01*
X0047009Y0145341D01*
X0045392Y0146011D01*
X0043642Y0146011D01*
X0042025Y0145341D01*
X0040787Y0144103D01*
X0040117Y0142486D01*
X0040117Y0134736D01*
X0040787Y0133119D01*
X0042025Y0131881D01*
X0043642Y0131211D01*
X0045392Y0131211D01*
X0047009Y0131881D01*
X0048247Y0133119D01*
X0048917Y0134736D01*
X0048917Y0142486D01*
X0048917Y0140870D02*
X0049236Y0140870D01*
X0048971Y0139272D02*
X0048917Y0139272D01*
X0048917Y0137673D02*
X0049159Y0137673D01*
X0048944Y0136075D02*
X0048917Y0136075D01*
X0048944Y0134476D02*
X0048810Y0134476D01*
X0048944Y0132878D02*
X0048006Y0132878D01*
X0049633Y0131279D02*
X0045557Y0131279D01*
X0047970Y0128082D02*
X0048465Y0128082D01*
X0048393Y0126484D02*
X0048043Y0126484D01*
X0048043Y0124885D02*
X0048393Y0124885D01*
X0048393Y0123287D02*
X0048043Y0123287D01*
X0049561Y0121688D02*
X0042330Y0121688D01*
X0043064Y0120090D02*
X0049561Y0120090D01*
X0049561Y0118491D02*
X0043528Y0118491D01*
X0043193Y0116893D02*
X0047995Y0116893D01*
X0046396Y0115294D02*
X0041323Y0115294D01*
X0038815Y0113696D02*
X0044798Y0113696D01*
X0043199Y0112097D02*
X0037217Y0112097D01*
X0035245Y0113237D02*
X0040344Y0118335D01*
X0037624Y0120090D02*
X0032725Y0120090D01*
X0032029Y0118491D02*
X0037160Y0118491D01*
X0035790Y0116893D02*
X0032029Y0116893D01*
X0035245Y0113237D02*
X0027879Y0113237D01*
X0018690Y0113237D01*
X0018690Y0115304D01*
X0015764Y0118491D02*
X0015061Y0118491D01*
X0018656Y0120090D02*
X0009286Y0120090D01*
X0009286Y0121688D02*
X0018239Y0121688D01*
X0017487Y0123287D02*
X0009286Y0123287D01*
X0009286Y0124885D02*
X0017487Y0124885D01*
X0017487Y0126484D02*
X0009286Y0126484D01*
X0009286Y0128082D02*
X0017638Y0128082D01*
X0016360Y0131163D02*
X0015641Y0130929D01*
X0014895Y0130811D01*
X0014717Y0130811D01*
X0014717Y0138411D01*
X0014317Y0138411D01*
X0009717Y0138411D01*
X0009717Y0135233D01*
X0009835Y0134487D01*
X0010069Y0133768D01*
X0010412Y0133095D01*
X0010856Y0132484D01*
X0011390Y0131950D01*
X0012001Y0131506D01*
X0012674Y0131163D01*
X0013393Y0130929D01*
X0014139Y0130811D01*
X0014317Y0130811D01*
X0014317Y0138411D01*
X0014317Y0138811D01*
X0009717Y0138811D01*
X0009717Y0141989D01*
X0009835Y0142735D01*
X0010069Y0143454D01*
X0010412Y0144127D01*
X0010856Y0144738D01*
X0011390Y0145272D01*
X0012001Y0145716D01*
X0012674Y0146059D01*
X0013393Y0146293D01*
X0014139Y0146411D01*
X0014317Y0146411D01*
X0014317Y0138811D01*
X0014717Y0138811D01*
X0014717Y0146411D01*
X0014895Y0146411D01*
X0015641Y0146293D01*
X0016360Y0146059D01*
X0017033Y0145716D01*
X0017644Y0145272D01*
X0018178Y0144738D01*
X0018622Y0144127D01*
X0018965Y0143454D01*
X0019199Y0142735D01*
X0019317Y0141989D01*
X0019317Y0138811D01*
X0014717Y0138811D01*
X0014717Y0138411D01*
X0019317Y0138411D01*
X0019317Y0135233D01*
X0019199Y0134487D01*
X0018965Y0133768D01*
X0018622Y0133095D01*
X0018178Y0132484D01*
X0017644Y0131950D01*
X0017033Y0131506D01*
X0016360Y0131163D01*
X0016589Y0131279D02*
X0022317Y0131279D01*
X0022317Y0129681D02*
X0009286Y0129681D01*
X0009286Y0131279D02*
X0012445Y0131279D01*
X0014317Y0131279D02*
X0014717Y0131279D01*
X0014717Y0132878D02*
X0014317Y0132878D01*
X0014317Y0134476D02*
X0014717Y0134476D01*
X0014717Y0136075D02*
X0014317Y0136075D01*
X0014317Y0137673D02*
X0014717Y0137673D01*
X0014717Y0139272D02*
X0014317Y0139272D01*
X0014317Y0140870D02*
X0014717Y0140870D01*
X0014717Y0142469D02*
X0014317Y0142469D01*
X0014317Y0144068D02*
X0014717Y0144068D01*
X0014717Y0145666D02*
X0014317Y0145666D01*
X0011932Y0145666D02*
X0009286Y0145666D01*
X0009286Y0144068D02*
X0010382Y0144068D01*
X0009793Y0142469D02*
X0009286Y0142469D01*
X0009286Y0140870D02*
X0009717Y0140870D01*
X0009717Y0139272D02*
X0009286Y0139272D01*
X0009286Y0137673D02*
X0009717Y0137673D01*
X0009717Y0136075D02*
X0009286Y0136075D01*
X0009286Y0134476D02*
X0009839Y0134476D01*
X0009286Y0132878D02*
X0010570Y0132878D01*
X0011604Y0125028D02*
X0011604Y0115304D01*
X0011419Y0116893D02*
X0011788Y0116893D01*
X0011788Y0118491D02*
X0011419Y0118491D01*
X0011419Y0113696D02*
X0011788Y0113696D01*
X0011788Y0112097D02*
X0011419Y0112097D01*
X0009286Y0110499D02*
X0023329Y0110499D01*
X0024379Y0115796D02*
X0020856Y0119320D01*
X0020856Y0125186D01*
X0024517Y0128611D02*
X0024517Y0138611D01*
X0020117Y0139272D02*
X0019317Y0139272D01*
X0019317Y0140870D02*
X0020117Y0140870D01*
X0020117Y0142469D02*
X0019241Y0142469D01*
X0018653Y0144068D02*
X0020772Y0144068D01*
X0022809Y0145666D02*
X0017102Y0145666D01*
X0019317Y0137673D02*
X0020117Y0137673D01*
X0020117Y0136075D02*
X0019317Y0136075D01*
X0019195Y0134476D02*
X0020224Y0134476D01*
X0021028Y0132878D02*
X0018464Y0132878D01*
X0024517Y0128611D02*
X0027942Y0125186D01*
X0026717Y0129681D02*
X0032317Y0129681D01*
X0032317Y0131279D02*
X0026717Y0131279D01*
X0028006Y0132878D02*
X0031028Y0132878D01*
X0030224Y0134476D02*
X0028810Y0134476D01*
X0028917Y0136075D02*
X0030117Y0136075D01*
X0030117Y0137673D02*
X0028917Y0137673D01*
X0028917Y0139272D02*
X0030117Y0139272D01*
X0030117Y0140870D02*
X0028917Y0140870D01*
X0028917Y0142469D02*
X0030117Y0142469D01*
X0030772Y0144068D02*
X0028262Y0144068D01*
X0026225Y0145666D02*
X0032809Y0145666D01*
X0036225Y0145666D02*
X0042809Y0145666D01*
X0040772Y0144068D02*
X0038262Y0144068D01*
X0038917Y0142469D02*
X0040117Y0142469D01*
X0040117Y0140870D02*
X0038917Y0140870D01*
X0038917Y0139272D02*
X0040117Y0139272D01*
X0040117Y0137673D02*
X0038917Y0137673D01*
X0038917Y0136075D02*
X0040117Y0136075D01*
X0040224Y0134476D02*
X0038810Y0134476D01*
X0038006Y0132878D02*
X0041028Y0132878D01*
X0043477Y0131279D02*
X0036732Y0131279D01*
X0038330Y0129681D02*
X0052120Y0129681D01*
X0051761Y0125265D02*
X0051761Y0117548D01*
X0052117Y0113696D02*
X0051020Y0113696D01*
X0052117Y0108119D02*
X0052117Y0107197D01*
X0052117Y0108119D02*
X0056667Y0108119D01*
X0056667Y0108119D01*
X0052517Y0105703D02*
X0043028Y0105703D01*
X0041429Y0104105D02*
X0052165Y0104105D01*
X0052117Y0102506D02*
X0039831Y0102506D01*
X0038232Y0100908D02*
X0052517Y0100908D01*
X0052517Y0099309D02*
X0036634Y0099309D01*
X0035207Y0104105D02*
X0032029Y0104105D01*
X0032029Y0105703D02*
X0036805Y0105703D01*
X0038404Y0107302D02*
X0032029Y0107302D01*
X0032077Y0108900D02*
X0040002Y0108900D01*
X0041601Y0110499D02*
X0032429Y0110499D01*
X0032429Y0110678D02*
X0027879Y0110678D01*
X0032253Y0110678D01*
X0033257Y0109674D01*
X0032429Y0110678D02*
X0027879Y0110678D01*
X0027879Y0110678D01*
X0027879Y0115796D02*
X0024379Y0115796D01*
X0027879Y0118355D02*
X0032627Y0123103D01*
X0032627Y0125186D01*
X0035244Y0121688D02*
X0037098Y0121688D01*
X0036345Y0123287D02*
X0035996Y0123287D01*
X0035996Y0124885D02*
X0036345Y0124885D01*
X0039714Y0125186D02*
X0034517Y0130383D01*
X0034517Y0138611D01*
X0039793Y0125265D02*
X0044675Y0125265D01*
X0039793Y0125265D02*
X0039714Y0125186D01*
X0048262Y0144068D02*
X0093843Y0144068D01*
X0093843Y0145666D02*
X0046225Y0145666D01*
X0062767Y0132878D02*
X0093843Y0132878D01*
X0093843Y0147265D02*
X0009286Y0147265D01*
X0015049Y0112097D02*
X0015783Y0112097D01*
X0010296Y0099309D02*
X0009286Y0099309D01*
X0009286Y0097711D02*
X0010296Y0097711D01*
X0010750Y0096112D02*
X0009286Y0096112D01*
X0009286Y0094514D02*
X0010900Y0094514D01*
X0010696Y0092915D02*
X0009286Y0092915D01*
X0009286Y0091317D02*
X0010696Y0091317D01*
X0010696Y0089718D02*
X0009286Y0089718D01*
X0009286Y0088120D02*
X0010696Y0088120D01*
X0010696Y0086521D02*
X0009286Y0086521D01*
X0009286Y0084923D02*
X0010696Y0084923D01*
X0016722Y0076032D02*
X0023631Y0076032D01*
X0028139Y0080540D01*
X0027879Y0080800D01*
X0027879Y0085087D01*
X0031531Y0083324D02*
X0053015Y0083324D01*
X0052517Y0084923D02*
X0032029Y0084923D01*
X0032029Y0086521D02*
X0052517Y0086521D01*
X0052517Y0088120D02*
X0032029Y0088120D01*
X0032029Y0089718D02*
X0052517Y0089718D01*
X0052279Y0091317D02*
X0032267Y0091317D01*
X0032429Y0092765D02*
X0027879Y0092765D01*
X0032429Y0092915D02*
X0052117Y0092915D01*
X0052117Y0092765D02*
X0056667Y0092765D01*
X0056667Y0092764D01*
X0056667Y0090206D02*
X0061781Y0090206D01*
X0064084Y0087902D01*
X0065777Y0087902D01*
X0068911Y0084923D02*
X0069287Y0084923D01*
X0072679Y0084923D02*
X0073048Y0084923D01*
X0073048Y0086521D02*
X0072679Y0086521D01*
X0072864Y0087902D02*
X0072864Y0083060D01*
X0073021Y0082902D01*
X0072864Y0087902D02*
X0072824Y0087942D01*
X0072679Y0088120D02*
X0073048Y0088120D01*
X0073048Y0089718D02*
X0072679Y0089718D01*
X0072679Y0091317D02*
X0073008Y0091317D01*
X0073008Y0092915D02*
X0072640Y0092915D01*
X0072824Y0093808D02*
X0075895Y0093808D01*
X0078139Y0091564D01*
X0078139Y0086839D01*
X0078257Y0086957D01*
X0076632Y0086521D02*
X0080906Y0086521D01*
X0080906Y0084923D02*
X0076440Y0084923D01*
X0076632Y0088120D02*
X0080906Y0088120D01*
X0081002Y0089718D02*
X0076632Y0089718D01*
X0076569Y0091317D02*
X0081857Y0091317D01*
X0081857Y0092915D02*
X0076593Y0092915D01*
X0076593Y0094514D02*
X0081857Y0094514D01*
X0084202Y0097902D02*
X0087982Y0094123D01*
X0091761Y0090343D01*
X0091761Y0086957D01*
X0093843Y0083324D02*
X0087700Y0083324D01*
X0084859Y0083324D02*
X0084490Y0083324D01*
X0084490Y0084923D02*
X0084859Y0084923D01*
X0084675Y0086288D02*
X0080895Y0082509D01*
X0081649Y0083324D02*
X0063804Y0083324D01*
X0063804Y0081726D02*
X0093843Y0081726D01*
X0093843Y0080127D02*
X0063804Y0080127D01*
X0063804Y0078529D02*
X0093843Y0078529D01*
X0093843Y0076930D02*
X0082964Y0076930D01*
X0082964Y0075332D02*
X0093843Y0075332D01*
X0093843Y0073733D02*
X0082964Y0073733D01*
X0082964Y0072134D02*
X0093843Y0072134D01*
X0093843Y0070536D02*
X0082964Y0070536D01*
X0082964Y0068937D02*
X0093843Y0068937D01*
X0093843Y0067339D02*
X0082964Y0067339D01*
X0082738Y0064142D02*
X0093843Y0064142D01*
X0093843Y0062543D02*
X0083122Y0062543D01*
X0083122Y0060945D02*
X0093843Y0060945D01*
X0093843Y0059346D02*
X0083122Y0059346D01*
X0083240Y0057748D02*
X0093843Y0057748D01*
X0093843Y0056149D02*
X0083240Y0056149D01*
X0083972Y0054551D02*
X0093843Y0054551D01*
X0093843Y0052952D02*
X0085778Y0052952D01*
X0085956Y0051354D02*
X0093843Y0051354D01*
X0093843Y0049755D02*
X0085956Y0049755D01*
X0085956Y0048157D02*
X0093843Y0048157D01*
X0093843Y0046558D02*
X0085643Y0046558D01*
X0086356Y0044960D02*
X0093843Y0044960D01*
X0093843Y0043361D02*
X0086356Y0043361D01*
X0086356Y0041763D02*
X0093843Y0041763D01*
X0093843Y0040164D02*
X0086054Y0040164D01*
X0084263Y0038566D02*
X0093843Y0038566D01*
X0093843Y0036967D02*
X0084263Y0036967D01*
X0084160Y0035369D02*
X0093843Y0035369D01*
X0093843Y0033770D02*
X0077964Y0033770D01*
X0077964Y0032172D02*
X0093843Y0032172D01*
X0093843Y0030573D02*
X0077964Y0030573D01*
X0077254Y0028975D02*
X0093843Y0028975D01*
X0093843Y0027376D02*
X0077964Y0027376D01*
X0079202Y0025146D02*
X0087804Y0016544D01*
X0087804Y0012824D01*
X0088076Y0019384D02*
X0093843Y0019384D01*
X0093843Y0020982D02*
X0086478Y0020982D01*
X0084879Y0022581D02*
X0093843Y0022581D01*
X0093843Y0024179D02*
X0083281Y0024179D01*
X0081682Y0025778D02*
X0093843Y0025778D01*
X0093843Y0017785D02*
X0093555Y0017785D01*
X0093555Y0016187D02*
X0093843Y0016187D01*
X0093843Y0014588D02*
X0093555Y0014588D01*
X0093555Y0012990D02*
X0093843Y0012990D01*
X0093843Y0011391D02*
X0093555Y0011391D01*
X0093555Y0009793D02*
X0093843Y0009793D01*
X0093843Y0008194D02*
X0093555Y0008194D01*
X0093843Y0006596D02*
X0067657Y0006596D01*
X0067657Y0008194D02*
X0069771Y0008194D01*
X0069771Y0009793D02*
X0067657Y0009793D01*
X0067113Y0004997D02*
X0093843Y0004997D01*
X0082054Y0008194D02*
X0081271Y0008194D01*
X0081271Y0007618D02*
X0081271Y0018030D01*
X0081271Y0016187D02*
X0082054Y0016187D01*
X0082054Y0014588D02*
X0081271Y0014588D01*
X0081271Y0012990D02*
X0082054Y0012990D01*
X0082054Y0011391D02*
X0081271Y0011391D01*
X0081271Y0009793D02*
X0082054Y0009793D01*
X0080255Y0020982D02*
X0045285Y0020982D01*
X0045287Y0022581D02*
X0070851Y0022581D01*
X0070071Y0023293D02*
X0070406Y0023628D01*
X0070643Y0024038D01*
X0070766Y0024496D01*
X0070766Y0028559D01*
X0065416Y0028559D01*
X0065416Y0030159D01*
X0070766Y0030159D01*
X0070766Y0034222D01*
X0070643Y0034680D01*
X0070406Y0035090D01*
X0070071Y0035425D01*
X0069661Y0035662D01*
X0069203Y0035785D01*
X0065415Y0035785D01*
X0065415Y0030159D01*
X0063815Y0030159D01*
X0063815Y0028559D01*
X0058465Y0028559D01*
X0058465Y0024496D01*
X0058588Y0024038D01*
X0058825Y0023628D01*
X0059160Y0023293D01*
X0059570Y0023056D01*
X0060028Y0022933D01*
X0063815Y0022933D01*
X0063815Y0028559D01*
X0065415Y0028559D01*
X0065415Y0022933D01*
X0069203Y0022933D01*
X0069661Y0023056D01*
X0070071Y0023293D01*
X0070681Y0024179D02*
X0070834Y0024179D01*
X0070834Y0025778D02*
X0070766Y0025778D01*
X0070766Y0027376D02*
X0070834Y0027376D01*
X0071544Y0028975D02*
X0065416Y0028975D01*
X0064615Y0029359D02*
X0067903Y0032646D01*
X0067903Y0039989D01*
X0069882Y0040164D02*
X0061638Y0040164D01*
X0061474Y0038566D02*
X0070440Y0038566D01*
X0070440Y0036967D02*
X0060329Y0036967D01*
X0060028Y0035785D02*
X0059570Y0035662D01*
X0059160Y0035425D01*
X0058825Y0035090D01*
X0058588Y0034680D01*
X0058465Y0034222D01*
X0058465Y0030159D01*
X0063815Y0030159D01*
X0063815Y0035785D01*
X0060028Y0035785D01*
X0059103Y0035369D02*
X0058470Y0035369D01*
X0058465Y0033770D02*
X0058082Y0033770D01*
X0058082Y0032172D02*
X0058465Y0032172D01*
X0058465Y0030573D02*
X0058082Y0030573D01*
X0058082Y0028975D02*
X0063815Y0028975D01*
X0063815Y0027376D02*
X0065415Y0027376D01*
X0065415Y0025778D02*
X0063815Y0025778D01*
X0063815Y0024179D02*
X0065415Y0024179D01*
X0065415Y0030573D02*
X0063815Y0030573D01*
X0063815Y0032172D02*
X0065415Y0032172D01*
X0065415Y0033770D02*
X0063815Y0033770D01*
X0063815Y0035369D02*
X0065415Y0035369D01*
X0070128Y0035369D02*
X0070543Y0035369D01*
X0070766Y0033770D02*
X0070834Y0033770D01*
X0070834Y0032172D02*
X0070766Y0032172D01*
X0070766Y0030573D02*
X0070834Y0030573D01*
X0073808Y0032824D02*
X0073808Y0038217D01*
X0073808Y0042351D01*
X0073021Y0043139D01*
X0071190Y0044969D01*
X0067037Y0044969D01*
X0067037Y0047528D02*
X0070324Y0047528D01*
X0073021Y0050225D01*
X0073021Y0055304D01*
X0072785Y0055540D01*
X0069416Y0056149D02*
X0052921Y0056149D01*
X0052896Y0057748D02*
X0069416Y0057748D01*
X0069298Y0059346D02*
X0051868Y0059346D01*
X0049793Y0056918D02*
X0049714Y0056839D01*
X0049714Y0052646D01*
X0057214Y0052646D01*
X0059773Y0050087D01*
X0067037Y0050087D01*
X0062382Y0052952D02*
X0060019Y0052952D01*
X0058421Y0054551D02*
X0062692Y0054551D01*
X0058592Y0048157D02*
X0053968Y0048157D01*
X0053968Y0049755D02*
X0056994Y0049755D01*
X0053968Y0046558D02*
X0062782Y0046558D01*
X0062782Y0044960D02*
X0053968Y0044960D01*
X0053826Y0043361D02*
X0062925Y0043361D01*
X0060790Y0041763D02*
X0069456Y0041763D01*
X0073808Y0032824D02*
X0074399Y0032233D01*
X0077377Y0035369D02*
X0077630Y0035369D01*
X0077527Y0036967D02*
X0077177Y0036967D01*
X0077177Y0038566D02*
X0077435Y0038566D01*
X0077745Y0041367D02*
X0077745Y0047076D01*
X0080895Y0050225D01*
X0082391Y0050225D01*
X0082391Y0053020D01*
X0079871Y0055540D01*
X0079871Y0060894D01*
X0079753Y0061013D01*
X0077214Y0065560D02*
X0077214Y0072272D01*
X0079414Y0065740D02*
X0093843Y0065740D01*
X0084675Y0086288D02*
X0084675Y0086957D01*
X0084490Y0086521D02*
X0084859Y0086521D01*
X0084202Y0097902D02*
X0077942Y0097902D01*
X0077923Y0097883D01*
X0056667Y0097883D01*
X0056667Y0100442D02*
X0073395Y0100442D01*
X0077942Y0104989D01*
X0084281Y0104989D01*
X0071464Y0076930D02*
X0070681Y0076930D01*
X0070681Y0075332D02*
X0071464Y0075332D01*
X0071464Y0073733D02*
X0070681Y0073733D01*
X0070681Y0072134D02*
X0071464Y0072134D01*
X0071464Y0070536D02*
X0070681Y0070536D01*
X0070681Y0068937D02*
X0071464Y0068937D01*
X0071464Y0067339D02*
X0070681Y0067339D01*
X0069682Y0064142D02*
X0047452Y0064142D01*
X0047452Y0062543D02*
X0069298Y0062543D01*
X0069298Y0060945D02*
X0047452Y0060945D01*
X0047492Y0059346D02*
X0047718Y0059346D01*
X0044084Y0061839D02*
X0039301Y0066623D01*
X0039301Y0072272D01*
X0037101Y0065740D02*
X0023148Y0065740D01*
X0023148Y0067339D02*
X0033550Y0067339D01*
X0033550Y0068937D02*
X0022942Y0068937D01*
X0022182Y0070536D02*
X0033550Y0070536D01*
X0033550Y0072134D02*
X0022748Y0072134D01*
X0022748Y0073733D02*
X0033550Y0073733D01*
X0033550Y0075332D02*
X0026042Y0075332D01*
X0027640Y0076930D02*
X0033550Y0076930D01*
X0031323Y0080127D02*
X0054467Y0080127D01*
X0054467Y0078529D02*
X0030631Y0078529D01*
X0031095Y0081726D02*
X0054467Y0081726D01*
X0056667Y0085087D02*
X0056667Y0077355D01*
X0051584Y0072272D01*
X0057334Y0072134D02*
X0059180Y0072134D01*
X0059180Y0070536D02*
X0057334Y0070536D01*
X0057334Y0068937D02*
X0059180Y0068937D01*
X0059180Y0067339D02*
X0057334Y0067339D01*
X0057334Y0073733D02*
X0059180Y0073733D01*
X0059180Y0075332D02*
X0057754Y0075332D01*
X0058867Y0076930D02*
X0059180Y0076930D01*
X0059404Y0078529D02*
X0058867Y0078529D01*
X0058867Y0080127D02*
X0059404Y0080127D01*
X0059404Y0081726D02*
X0058867Y0081726D01*
X0061604Y0086446D02*
X0061604Y0075599D01*
X0064930Y0072272D01*
X0072667Y0061013D02*
X0077214Y0065560D01*
X0074283Y0065740D02*
X0043294Y0065740D01*
X0045051Y0067339D02*
X0045834Y0067339D01*
X0045834Y0068937D02*
X0045051Y0068937D01*
X0045051Y0070536D02*
X0045834Y0070536D01*
X0045834Y0072134D02*
X0045051Y0072134D01*
X0045051Y0073733D02*
X0045834Y0073733D01*
X0045834Y0075332D02*
X0045051Y0075332D01*
X0045051Y0076930D02*
X0045834Y0076930D01*
X0036997Y0061839D02*
X0036997Y0056761D01*
X0037037Y0056721D01*
X0039163Y0054595D01*
X0039163Y0049005D01*
X0034832Y0044674D01*
X0034793Y0044635D01*
X0034793Y0039792D01*
X0038161Y0040164D02*
X0038511Y0040164D01*
X0038511Y0038566D02*
X0038161Y0038566D01*
X0038082Y0036967D02*
X0038590Y0036967D01*
X0041722Y0039635D02*
X0041879Y0039792D01*
X0043887Y0041800D01*
X0043887Y0044713D01*
X0043887Y0046682D01*
X0044734Y0047528D01*
X0049714Y0047528D01*
X0049714Y0050087D02*
X0045600Y0050087D01*
X0043887Y0051800D01*
X0044123Y0052036D01*
X0044123Y0056721D01*
X0040322Y0046558D02*
X0039828Y0046558D01*
X0040322Y0044960D02*
X0038397Y0044960D01*
X0038397Y0043361D02*
X0040322Y0043361D01*
X0038511Y0041763D02*
X0038161Y0041763D01*
X0041722Y0039635D02*
X0041722Y0030619D01*
X0045287Y0030573D02*
X0046582Y0030573D01*
X0046005Y0032172D02*
X0045287Y0032172D01*
X0044684Y0033770D02*
X0046005Y0033770D01*
X0046005Y0035369D02*
X0043922Y0035369D01*
X0045168Y0036967D02*
X0046005Y0036967D01*
X0046005Y0038566D02*
X0045248Y0038566D01*
X0045363Y0040164D02*
X0046005Y0040164D01*
X0049005Y0044261D02*
X0049714Y0044969D01*
X0052005Y0041763D02*
X0056118Y0041763D01*
X0054780Y0040164D02*
X0052005Y0040164D01*
X0052005Y0038566D02*
X0053182Y0038566D01*
X0052332Y0033473D02*
X0052332Y0029359D01*
X0049005Y0032686D01*
X0049714Y0031977D02*
X0052332Y0029359D01*
X0046582Y0028975D02*
X0045287Y0028975D01*
X0044593Y0027376D02*
X0046582Y0027376D01*
X0046582Y0025778D02*
X0045287Y0025778D01*
X0045287Y0024179D02*
X0046582Y0024179D01*
X0041722Y0023532D02*
X0041584Y0023670D01*
X0024989Y0023670D01*
X0030641Y0028975D02*
X0038156Y0028975D01*
X0038851Y0027376D02*
X0031015Y0027376D01*
X0024989Y0011387D02*
X0026190Y0010186D01*
X0043257Y0010186D01*
X0047439Y0014588D02*
X0048666Y0014588D01*
X0048457Y0012990D02*
X0047657Y0012990D01*
X0047657Y0011391D02*
X0048457Y0011391D01*
X0048457Y0009793D02*
X0047657Y0009793D01*
X0047657Y0008194D02*
X0048457Y0008194D01*
X0048491Y0006596D02*
X0047657Y0006596D01*
X0047113Y0004997D02*
X0048985Y0004997D01*
X0053057Y0011391D02*
X0053457Y0011391D01*
X0053457Y0012990D02*
X0053057Y0012990D01*
X0053057Y0014588D02*
X0053457Y0014588D01*
X0053457Y0016187D02*
X0053057Y0016187D01*
X0049504Y0016187D02*
X0046479Y0016187D01*
X0057010Y0016187D02*
X0060035Y0016187D01*
X0059076Y0014588D02*
X0057849Y0014588D01*
X0058057Y0012990D02*
X0058857Y0012990D01*
X0058857Y0011391D02*
X0058057Y0011391D01*
X0058057Y0009793D02*
X0058857Y0009793D01*
X0058857Y0008194D02*
X0058057Y0008194D01*
X0058024Y0006596D02*
X0058857Y0006596D01*
X0059401Y0004997D02*
X0057529Y0004997D01*
X0058082Y0024179D02*
X0058550Y0024179D01*
X0058465Y0025778D02*
X0058082Y0025778D01*
X0058082Y0027376D02*
X0058465Y0027376D01*
X0074399Y0025146D02*
X0079202Y0025146D01*
X0078657Y0022581D02*
X0077947Y0022581D01*
X0080895Y0038217D02*
X0077745Y0041367D01*
X0082391Y0043139D02*
X0091919Y0043139D01*
X0061604Y0086446D02*
X0060403Y0087646D01*
X0056667Y0087646D01*
X0061217Y0092915D02*
X0062369Y0092915D01*
X0064222Y0095324D02*
X0065738Y0093808D01*
X0064222Y0095324D02*
X0056667Y0095324D01*
X0052517Y0096112D02*
X0032029Y0096112D01*
X0032029Y0097711D02*
X0052517Y0097711D01*
X0052453Y0094514D02*
X0032093Y0094514D01*
X0025184Y0081726D02*
X0021985Y0081726D01*
X0022748Y0080127D02*
X0024615Y0080127D01*
X0023016Y0078529D02*
X0022748Y0078529D01*
X0017522Y0068937D02*
X0015922Y0068937D01*
X0015922Y0067339D02*
X0017522Y0067339D01*
X0017522Y0065740D02*
X0015922Y0065740D01*
X0010296Y0062543D02*
X0009286Y0062543D01*
X0009286Y0060945D02*
X0010296Y0060945D01*
X0010296Y0059346D02*
X0009286Y0059346D01*
X0009286Y0057748D02*
X0011355Y0057748D01*
X0025383Y0051800D02*
X0025423Y0051761D01*
X0034832Y0051761D01*
X0018964Y0014588D02*
X0009286Y0014588D01*
X0009286Y0012990D02*
X0018964Y0012990D01*
X0018964Y0011391D02*
X0009286Y0011391D01*
X0009286Y0009793D02*
X0018964Y0009793D01*
X0018964Y0008194D02*
X0009286Y0008194D01*
X0009286Y0006596D02*
X0018964Y0006596D01*
D19*
X0025383Y0051800D03*
X0019084Y0054950D03*
X0028139Y0080540D03*
X0033651Y0092745D03*
X0033257Y0109674D03*
X0040344Y0118335D03*
X0050974Y0110855D03*
X0051367Y0092745D03*
X0073021Y0082902D03*
X0078139Y0086839D03*
X0080895Y0082509D03*
X0067115Y0056524D03*
X0067903Y0039989D03*
X0058454Y0039595D03*
X0049793Y0056918D03*
X0017115Y0109674D03*
X0011604Y0125028D03*
X0052155Y0139595D03*
X0055304Y0130146D03*
X0072234Y0112430D03*
X0076564Y0117154D03*
X0082076Y0120698D03*
X0091919Y0043139D03*
D20*
X0058454Y0039595D02*
X0052332Y0033473D01*
X0049005Y0032686D02*
X0049005Y0044261D01*
M02*
