G75*
%MOIN*%
%OFA0B0*%
%FSLAX25Y25*%
%IPPOS*%
%LPD*%
%AMOC8*
5,1,8,0,0,1.08239X$1,22.5*
%
%ADD10C,0.06000*%
%ADD11C,0.03569*%
%ADD12C,0.01600*%
D10*
X0043257Y0007186D02*
X0043257Y0013186D01*
X0053257Y0013186D02*
X0053257Y0007186D01*
X0063257Y0007186D02*
X0063257Y0013186D01*
X0044517Y0135611D02*
X0044517Y0141611D01*
X0034517Y0141611D02*
X0034517Y0135611D01*
X0024517Y0135611D02*
X0024517Y0141611D01*
X0014517Y0141611D02*
X0014517Y0135611D01*
D11*
X0011604Y0125028D03*
X0017115Y0109674D03*
X0033257Y0109674D03*
X0040344Y0118335D03*
X0050974Y0110855D03*
X0051367Y0092745D03*
X0033651Y0092745D03*
X0028139Y0080540D03*
X0019084Y0054950D03*
X0025383Y0051800D03*
X0049793Y0056918D03*
X0058454Y0039595D03*
X0067903Y0039989D03*
X0067115Y0056524D03*
X0080895Y0082509D03*
X0078139Y0086839D03*
X0073021Y0082902D03*
X0072234Y0112430D03*
X0076564Y0117154D03*
X0082076Y0120698D03*
X0055304Y0130146D03*
X0052155Y0139595D03*
X0091919Y0043139D03*
D12*
X0009286Y0004600D02*
X0009286Y0148213D01*
X0093843Y0148213D01*
X0093843Y0004600D01*
X0066894Y0004600D01*
X0066987Y0004693D01*
X0067657Y0006311D01*
X0067657Y0014061D01*
X0066987Y0015678D01*
X0065750Y0016916D01*
X0064132Y0017586D01*
X0062382Y0017586D01*
X0060765Y0016916D01*
X0059527Y0015678D01*
X0058857Y0014061D01*
X0058857Y0006311D01*
X0059527Y0004693D01*
X0059621Y0004600D01*
X0057312Y0004600D01*
X0057363Y0004670D01*
X0057706Y0005343D01*
X0057939Y0006062D01*
X0058057Y0006808D01*
X0058057Y0009986D01*
X0053457Y0009986D01*
X0053457Y0010386D01*
X0053057Y0010386D01*
X0053057Y0009986D01*
X0048457Y0009986D01*
X0048457Y0006808D01*
X0048575Y0006062D01*
X0048809Y0005343D01*
X0049152Y0004670D01*
X0049203Y0004600D01*
X0046894Y0004600D01*
X0046987Y0004693D01*
X0047657Y0006311D01*
X0047657Y0014061D01*
X0046987Y0015678D01*
X0045750Y0016916D01*
X0044132Y0017586D01*
X0042382Y0017586D01*
X0040765Y0016916D01*
X0039527Y0015678D01*
X0038857Y0014061D01*
X0038857Y0006311D01*
X0039527Y0004693D01*
X0039621Y0004600D01*
X0009286Y0004600D01*
X0009286Y0004997D02*
X0039401Y0004997D01*
X0038857Y0006596D02*
X0009286Y0006596D01*
X0009286Y0008194D02*
X0038857Y0008194D01*
X0038857Y0009793D02*
X0009286Y0009793D01*
X0009286Y0011391D02*
X0038857Y0011391D01*
X0038857Y0012990D02*
X0009286Y0012990D01*
X0009286Y0014588D02*
X0039076Y0014588D01*
X0040035Y0016187D02*
X0009286Y0016187D01*
X0009286Y0017785D02*
X0051879Y0017785D01*
X0052133Y0017868D02*
X0051415Y0017634D01*
X0050741Y0017291D01*
X0050130Y0016847D01*
X0049596Y0016313D01*
X0049152Y0015702D01*
X0048809Y0015028D01*
X0048575Y0014310D01*
X0048457Y0013564D01*
X0048457Y0010386D01*
X0053057Y0010386D01*
X0053057Y0017986D01*
X0052879Y0017986D01*
X0052133Y0017868D01*
X0053057Y0017785D02*
X0053457Y0017785D01*
X0053457Y0017986D02*
X0053457Y0010386D01*
X0058057Y0010386D01*
X0058057Y0013564D01*
X0057939Y0014310D01*
X0057706Y0015028D01*
X0057363Y0015702D01*
X0056918Y0016313D01*
X0056384Y0016847D01*
X0055773Y0017291D01*
X0055100Y0017634D01*
X0054381Y0017868D01*
X0053635Y0017986D01*
X0053457Y0017986D01*
X0054635Y0017785D02*
X0093843Y0017785D01*
X0093843Y0016187D02*
X0066479Y0016187D01*
X0067439Y0014588D02*
X0093843Y0014588D01*
X0093843Y0012990D02*
X0067657Y0012990D01*
X0067657Y0011391D02*
X0093843Y0011391D01*
X0093843Y0009793D02*
X0067657Y0009793D01*
X0067657Y0008194D02*
X0093843Y0008194D01*
X0093843Y0006596D02*
X0067657Y0006596D01*
X0067113Y0004997D02*
X0093843Y0004997D01*
X0093843Y0019384D02*
X0009286Y0019384D01*
X0009286Y0020982D02*
X0093843Y0020982D01*
X0093843Y0022581D02*
X0009286Y0022581D01*
X0009286Y0024179D02*
X0093843Y0024179D01*
X0093843Y0025778D02*
X0009286Y0025778D01*
X0009286Y0027376D02*
X0093843Y0027376D01*
X0093843Y0028975D02*
X0009286Y0028975D01*
X0009286Y0030573D02*
X0093843Y0030573D01*
X0093843Y0032172D02*
X0009286Y0032172D01*
X0009286Y0033770D02*
X0093843Y0033770D01*
X0093843Y0035369D02*
X0009286Y0035369D01*
X0009286Y0036967D02*
X0056579Y0036967D01*
X0056650Y0036896D02*
X0057821Y0036411D01*
X0059087Y0036411D01*
X0060258Y0036896D01*
X0061154Y0037792D01*
X0061638Y0038962D01*
X0061638Y0040229D01*
X0061154Y0041399D01*
X0060258Y0042295D01*
X0059087Y0042780D01*
X0057821Y0042780D01*
X0056650Y0042295D01*
X0055755Y0041399D01*
X0055270Y0040229D01*
X0055270Y0038962D01*
X0055755Y0037792D01*
X0056650Y0036896D01*
X0055434Y0038566D02*
X0009286Y0038566D01*
X0009286Y0040164D02*
X0055270Y0040164D01*
X0056118Y0041763D02*
X0009286Y0041763D01*
X0009286Y0043361D02*
X0093843Y0043361D01*
X0093843Y0041763D02*
X0060790Y0041763D01*
X0061638Y0040164D02*
X0093843Y0040164D01*
X0093843Y0038566D02*
X0061474Y0038566D01*
X0060329Y0036967D02*
X0093843Y0036967D01*
X0093843Y0044960D02*
X0009286Y0044960D01*
X0009286Y0046558D02*
X0093843Y0046558D01*
X0093843Y0048157D02*
X0009286Y0048157D01*
X0009286Y0049755D02*
X0093843Y0049755D01*
X0093843Y0051354D02*
X0009286Y0051354D01*
X0009286Y0052952D02*
X0093843Y0052952D01*
X0093843Y0054551D02*
X0051929Y0054551D01*
X0051596Y0054219D02*
X0052492Y0055114D01*
X0052977Y0056285D01*
X0052977Y0057552D01*
X0052492Y0058722D01*
X0051596Y0059618D01*
X0050426Y0060102D01*
X0049720Y0060102D01*
X0030911Y0078911D01*
X0031323Y0079907D01*
X0031323Y0081174D01*
X0030839Y0082344D01*
X0029943Y0083240D01*
X0028772Y0083724D01*
X0027506Y0083724D01*
X0026335Y0083240D01*
X0025440Y0082344D01*
X0024955Y0081174D01*
X0024955Y0079907D01*
X0025440Y0078736D01*
X0025939Y0078237D01*
X0025939Y0077660D01*
X0027228Y0076372D01*
X0046608Y0056991D01*
X0046608Y0056285D01*
X0047093Y0055114D01*
X0047989Y0054219D01*
X0049159Y0053734D01*
X0050426Y0053734D01*
X0051596Y0054219D01*
X0052921Y0056149D02*
X0093843Y0056149D01*
X0093843Y0057748D02*
X0052896Y0057748D01*
X0051868Y0059346D02*
X0093843Y0059346D01*
X0093843Y0060945D02*
X0048877Y0060945D01*
X0047279Y0062543D02*
X0093843Y0062543D01*
X0093843Y0064142D02*
X0045680Y0064142D01*
X0044082Y0065740D02*
X0093843Y0065740D01*
X0093843Y0067339D02*
X0042483Y0067339D01*
X0040885Y0068937D02*
X0093843Y0068937D01*
X0093843Y0070536D02*
X0039286Y0070536D01*
X0037688Y0072134D02*
X0093843Y0072134D01*
X0093843Y0073733D02*
X0036089Y0073733D01*
X0034490Y0075332D02*
X0093843Y0075332D01*
X0093843Y0076930D02*
X0032892Y0076930D01*
X0031293Y0078529D02*
X0093843Y0078529D01*
X0093843Y0080127D02*
X0031323Y0080127D01*
X0031095Y0081726D02*
X0093843Y0081726D01*
X0093843Y0083324D02*
X0029739Y0083324D01*
X0028139Y0080540D02*
X0028139Y0078572D01*
X0049793Y0056918D01*
X0047657Y0054551D02*
X0009286Y0054551D01*
X0009286Y0056149D02*
X0046664Y0056149D01*
X0045852Y0057748D02*
X0009286Y0057748D01*
X0009286Y0059346D02*
X0044253Y0059346D01*
X0042655Y0060945D02*
X0009286Y0060945D01*
X0009286Y0062543D02*
X0041056Y0062543D01*
X0039458Y0064142D02*
X0009286Y0064142D01*
X0009286Y0065740D02*
X0037859Y0065740D01*
X0036261Y0067339D02*
X0009286Y0067339D01*
X0009286Y0068937D02*
X0034662Y0068937D01*
X0033063Y0070536D02*
X0009286Y0070536D01*
X0009286Y0072134D02*
X0031465Y0072134D01*
X0029866Y0073733D02*
X0009286Y0073733D01*
X0009286Y0075332D02*
X0028268Y0075332D01*
X0026669Y0076930D02*
X0009286Y0076930D01*
X0009286Y0078529D02*
X0025647Y0078529D01*
X0024955Y0080127D02*
X0009286Y0080127D01*
X0009286Y0081726D02*
X0025184Y0081726D01*
X0026539Y0083324D02*
X0009286Y0083324D01*
X0009286Y0084923D02*
X0093843Y0084923D01*
X0093843Y0086521D02*
X0009286Y0086521D01*
X0009286Y0088120D02*
X0093843Y0088120D01*
X0093843Y0089718D02*
X0009286Y0089718D01*
X0009286Y0091317D02*
X0093843Y0091317D01*
X0093843Y0092915D02*
X0009286Y0092915D01*
X0009286Y0094514D02*
X0093843Y0094514D01*
X0093843Y0096112D02*
X0009286Y0096112D01*
X0009286Y0097711D02*
X0093843Y0097711D01*
X0093843Y0099309D02*
X0009286Y0099309D01*
X0009286Y0100908D02*
X0093843Y0100908D01*
X0093843Y0102506D02*
X0009286Y0102506D01*
X0009286Y0104105D02*
X0093843Y0104105D01*
X0093843Y0105703D02*
X0009286Y0105703D01*
X0009286Y0107302D02*
X0093843Y0107302D01*
X0093843Y0108900D02*
X0009286Y0108900D01*
X0009286Y0110499D02*
X0093843Y0110499D01*
X0093843Y0112097D02*
X0009286Y0112097D01*
X0009286Y0113696D02*
X0093843Y0113696D01*
X0093843Y0115294D02*
X0041323Y0115294D01*
X0040977Y0115151D02*
X0042148Y0115636D01*
X0043043Y0116532D01*
X0043528Y0117702D01*
X0043528Y0118408D01*
X0053034Y0127914D01*
X0053501Y0127447D01*
X0054671Y0126962D01*
X0055938Y0126962D01*
X0057108Y0127447D01*
X0058004Y0128343D01*
X0058489Y0129513D01*
X0058489Y0130780D01*
X0058004Y0131950D01*
X0057108Y0132846D01*
X0055938Y0133331D01*
X0054671Y0133331D01*
X0053501Y0132846D01*
X0053001Y0132346D01*
X0051244Y0132346D01*
X0049955Y0131058D01*
X0040417Y0121520D01*
X0039710Y0121520D01*
X0038540Y0121035D01*
X0037644Y0120139D01*
X0037160Y0118969D01*
X0037160Y0117702D01*
X0037644Y0116532D01*
X0038540Y0115636D01*
X0039710Y0115151D01*
X0040977Y0115151D01*
X0039365Y0115294D02*
X0009286Y0115294D01*
X0009286Y0116893D02*
X0037495Y0116893D01*
X0037160Y0118491D02*
X0009286Y0118491D01*
X0009286Y0120090D02*
X0037624Y0120090D01*
X0040344Y0118335D02*
X0052155Y0130146D01*
X0055304Y0130146D01*
X0053578Y0132878D02*
X0048006Y0132878D01*
X0048247Y0133119D02*
X0048917Y0134736D01*
X0048917Y0142486D01*
X0048247Y0144103D01*
X0047009Y0145341D01*
X0045392Y0146011D01*
X0043642Y0146011D01*
X0042025Y0145341D01*
X0040787Y0144103D01*
X0040117Y0142486D01*
X0040117Y0134736D01*
X0040787Y0133119D01*
X0042025Y0131881D01*
X0043642Y0131211D01*
X0045392Y0131211D01*
X0047009Y0131881D01*
X0048247Y0133119D01*
X0048810Y0134476D02*
X0093843Y0134476D01*
X0093843Y0136075D02*
X0048917Y0136075D01*
X0048917Y0137673D02*
X0049573Y0137673D01*
X0049455Y0137792D02*
X0050351Y0136896D01*
X0051521Y0136411D01*
X0052788Y0136411D01*
X0053959Y0136896D01*
X0054854Y0137792D01*
X0055339Y0138962D01*
X0055339Y0140229D01*
X0054854Y0141399D01*
X0053959Y0142295D01*
X0052788Y0142780D01*
X0051521Y0142780D01*
X0050351Y0142295D01*
X0049455Y0141399D01*
X0048971Y0140229D01*
X0048971Y0138962D01*
X0049455Y0137792D01*
X0048971Y0139272D02*
X0048917Y0139272D01*
X0048917Y0140870D02*
X0049236Y0140870D01*
X0048917Y0142469D02*
X0050772Y0142469D01*
X0053538Y0142469D02*
X0093843Y0142469D01*
X0093843Y0140870D02*
X0055073Y0140870D01*
X0055339Y0139272D02*
X0093843Y0139272D01*
X0093843Y0137673D02*
X0054736Y0137673D01*
X0057031Y0132878D02*
X0093843Y0132878D01*
X0093843Y0131279D02*
X0058282Y0131279D01*
X0058489Y0129681D02*
X0093843Y0129681D01*
X0093843Y0128082D02*
X0057744Y0128082D01*
X0051604Y0126484D02*
X0093843Y0126484D01*
X0093843Y0124885D02*
X0050005Y0124885D01*
X0048407Y0123287D02*
X0093843Y0123287D01*
X0093843Y0121688D02*
X0046808Y0121688D01*
X0045209Y0120090D02*
X0093843Y0120090D01*
X0093843Y0118491D02*
X0043611Y0118491D01*
X0043193Y0116893D02*
X0093843Y0116893D01*
X0093843Y0144068D02*
X0048262Y0144068D01*
X0046225Y0145666D02*
X0093843Y0145666D01*
X0093843Y0147265D02*
X0009286Y0147265D01*
X0009286Y0145666D02*
X0011932Y0145666D01*
X0012001Y0145716D02*
X0011390Y0145272D01*
X0010856Y0144738D01*
X0010412Y0144127D01*
X0010069Y0143454D01*
X0009835Y0142735D01*
X0009717Y0141989D01*
X0009717Y0138811D01*
X0014317Y0138811D01*
X0014317Y0138411D01*
X0009717Y0138411D01*
X0009717Y0135233D01*
X0009835Y0134487D01*
X0010069Y0133768D01*
X0010412Y0133095D01*
X0010856Y0132484D01*
X0011390Y0131950D01*
X0012001Y0131506D01*
X0012674Y0131163D01*
X0013393Y0130929D01*
X0014139Y0130811D01*
X0014317Y0130811D01*
X0014317Y0138411D01*
X0014717Y0138411D01*
X0014717Y0130811D01*
X0014895Y0130811D01*
X0015641Y0130929D01*
X0016360Y0131163D01*
X0017033Y0131506D01*
X0017644Y0131950D01*
X0018178Y0132484D01*
X0018622Y0133095D01*
X0018965Y0133768D01*
X0019199Y0134487D01*
X0019317Y0135233D01*
X0019317Y0138411D01*
X0014717Y0138411D01*
X0014717Y0138811D01*
X0014317Y0138811D01*
X0014317Y0146411D01*
X0014139Y0146411D01*
X0013393Y0146293D01*
X0012674Y0146059D01*
X0012001Y0145716D01*
X0010382Y0144068D02*
X0009286Y0144068D01*
X0009286Y0142469D02*
X0009793Y0142469D01*
X0009717Y0140870D02*
X0009286Y0140870D01*
X0009286Y0139272D02*
X0009717Y0139272D01*
X0009717Y0137673D02*
X0009286Y0137673D01*
X0009286Y0136075D02*
X0009717Y0136075D01*
X0009839Y0134476D02*
X0009286Y0134476D01*
X0009286Y0132878D02*
X0010570Y0132878D01*
X0009286Y0131279D02*
X0012445Y0131279D01*
X0014317Y0131279D02*
X0014717Y0131279D01*
X0014717Y0132878D02*
X0014317Y0132878D01*
X0014317Y0134476D02*
X0014717Y0134476D01*
X0014717Y0136075D02*
X0014317Y0136075D01*
X0014317Y0137673D02*
X0014717Y0137673D01*
X0014717Y0138811D02*
X0019317Y0138811D01*
X0019317Y0141989D01*
X0019199Y0142735D01*
X0018965Y0143454D01*
X0018622Y0144127D01*
X0018178Y0144738D01*
X0017644Y0145272D01*
X0017033Y0145716D01*
X0016360Y0146059D01*
X0015641Y0146293D01*
X0014895Y0146411D01*
X0014717Y0146411D01*
X0014717Y0138811D01*
X0014717Y0139272D02*
X0014317Y0139272D01*
X0014317Y0140870D02*
X0014717Y0140870D01*
X0014717Y0142469D02*
X0014317Y0142469D01*
X0014317Y0144068D02*
X0014717Y0144068D01*
X0014717Y0145666D02*
X0014317Y0145666D01*
X0017102Y0145666D02*
X0022809Y0145666D01*
X0022025Y0145341D02*
X0023642Y0146011D01*
X0025392Y0146011D01*
X0027009Y0145341D01*
X0028247Y0144103D01*
X0028917Y0142486D01*
X0028917Y0134736D01*
X0028247Y0133119D01*
X0027009Y0131881D01*
X0025392Y0131211D01*
X0023642Y0131211D01*
X0022025Y0131881D01*
X0020787Y0133119D01*
X0020117Y0134736D01*
X0020117Y0142486D01*
X0020787Y0144103D01*
X0022025Y0145341D01*
X0020772Y0144068D02*
X0018653Y0144068D01*
X0019241Y0142469D02*
X0020117Y0142469D01*
X0020117Y0140870D02*
X0019317Y0140870D01*
X0019317Y0139272D02*
X0020117Y0139272D01*
X0020117Y0137673D02*
X0019317Y0137673D01*
X0019317Y0136075D02*
X0020117Y0136075D01*
X0020224Y0134476D02*
X0019195Y0134476D01*
X0018464Y0132878D02*
X0021028Y0132878D01*
X0023477Y0131279D02*
X0016589Y0131279D01*
X0009286Y0129681D02*
X0048578Y0129681D01*
X0050177Y0131279D02*
X0045557Y0131279D01*
X0046980Y0128082D02*
X0009286Y0128082D01*
X0009286Y0126484D02*
X0045381Y0126484D01*
X0043782Y0124885D02*
X0009286Y0124885D01*
X0009286Y0123287D02*
X0042184Y0123287D01*
X0040585Y0121688D02*
X0009286Y0121688D01*
X0025557Y0131279D02*
X0033477Y0131279D01*
X0033642Y0131211D02*
X0032025Y0131881D01*
X0030787Y0133119D01*
X0030117Y0134736D01*
X0030117Y0142486D01*
X0030787Y0144103D01*
X0032025Y0145341D01*
X0033642Y0146011D01*
X0035392Y0146011D01*
X0037009Y0145341D01*
X0038247Y0144103D01*
X0038917Y0142486D01*
X0038917Y0134736D01*
X0038247Y0133119D01*
X0037009Y0131881D01*
X0035392Y0131211D01*
X0033642Y0131211D01*
X0035557Y0131279D02*
X0043477Y0131279D01*
X0041028Y0132878D02*
X0038006Y0132878D01*
X0038810Y0134476D02*
X0040224Y0134476D01*
X0040117Y0136075D02*
X0038917Y0136075D01*
X0038917Y0137673D02*
X0040117Y0137673D01*
X0040117Y0139272D02*
X0038917Y0139272D01*
X0038917Y0140870D02*
X0040117Y0140870D01*
X0040117Y0142469D02*
X0038917Y0142469D01*
X0038262Y0144068D02*
X0040772Y0144068D01*
X0042809Y0145666D02*
X0036225Y0145666D01*
X0032809Y0145666D02*
X0026225Y0145666D01*
X0028262Y0144068D02*
X0030772Y0144068D01*
X0030117Y0142469D02*
X0028917Y0142469D01*
X0028917Y0140870D02*
X0030117Y0140870D01*
X0030117Y0139272D02*
X0028917Y0139272D01*
X0028917Y0137673D02*
X0030117Y0137673D01*
X0030117Y0136075D02*
X0028917Y0136075D01*
X0028810Y0134476D02*
X0030224Y0134476D01*
X0031028Y0132878D02*
X0028006Y0132878D01*
X0046479Y0016187D02*
X0049504Y0016187D01*
X0048666Y0014588D02*
X0047439Y0014588D01*
X0047657Y0012990D02*
X0048457Y0012990D01*
X0048457Y0011391D02*
X0047657Y0011391D01*
X0047657Y0009793D02*
X0048457Y0009793D01*
X0048457Y0008194D02*
X0047657Y0008194D01*
X0047657Y0006596D02*
X0048491Y0006596D01*
X0048985Y0004997D02*
X0047113Y0004997D01*
X0053057Y0011391D02*
X0053457Y0011391D01*
X0053457Y0012990D02*
X0053057Y0012990D01*
X0053057Y0014588D02*
X0053457Y0014588D01*
X0053457Y0016187D02*
X0053057Y0016187D01*
X0057010Y0016187D02*
X0060035Y0016187D01*
X0059076Y0014588D02*
X0057849Y0014588D01*
X0058057Y0012990D02*
X0058857Y0012990D01*
X0058857Y0011391D02*
X0058057Y0011391D01*
X0058057Y0009793D02*
X0058857Y0009793D01*
X0058857Y0008194D02*
X0058057Y0008194D01*
X0058024Y0006596D02*
X0058857Y0006596D01*
X0059401Y0004997D02*
X0057529Y0004997D01*
M02*
